<svg width="80" height="81" viewBox="0 0 80 81" fill="none" xmlns="http://www.w3.org/2000/svg">
<g clip-path="url(#clip0_300_284)">
<circle cx="40" cy="40.1337" r="32" transform="rotate(45 40 40.1337)" stroke="url(#paint0_linear_300_284)" stroke-width="4"/>
<path d="M37.1712 27.4058L33.3567 23.5913C31.6625 21.897 32.5402 18.9982 34.8897 18.5283L63.8713 12.732C65.9704 12.3121 67.8212 14.1629 67.4014 16.2621L61.6051 45.2436C61.1351 47.5932 58.2363 48.4709 56.542 46.7766L52.7275 42.9621L39.9996 55.6901C39.2186 56.4711 37.9522 56.4711 37.1712 55.6901C36.3901 54.909 36.3901 53.6427 37.1712 52.8616L53.4346 36.5982C53.8252 36.2077 53.8252 35.5745 53.4346 35.184C53.0441 34.7934 52.411 34.7934 52.0204 35.184L43.5352 43.6692C42.7541 44.4503 41.4878 44.4503 40.7067 43.6692C39.9257 42.8882 39.9257 41.6219 40.7067 40.8408L44.9494 36.5982C45.3399 36.2077 45.3399 35.5745 44.9494 35.184C44.5588 34.7934 43.9257 34.7934 43.5352 35.184L30.8072 47.9119C30.0262 48.6929 28.7599 48.6929 27.9788 47.9119C27.1978 47.1308 27.1978 45.8645 27.9788 45.0835L48.4849 24.5774C48.8754 24.1868 48.8754 23.5537 48.4849 23.1631C48.0944 22.7726 47.4612 22.7726 47.0707 23.1631L31.5143 38.7195C30.7333 39.5005 29.467 39.5005 28.6859 38.7195C27.9049 37.9384 27.9049 36.6721 28.6859 35.8911L37.1712 27.4058Z" fill="url(#paint1_linear_300_284)"/>
<path d="M19.4935 45.0835L24.4433 40.1337C25.2243 39.3527 26.4906 39.3527 27.2717 40.1337C28.0527 40.9148 28.0527 42.1811 27.2717 42.9621L22.3219 47.9119C21.5409 48.6929 20.2746 48.6929 19.4935 47.9119C18.7125 47.1308 18.7125 45.8645 19.4935 45.0835Z" fill="url(#paint2_linear_300_284)"/>
<path d="M27.9788 53.5687L36.4641 45.0835C37.2451 44.3024 38.5115 44.3024 39.2925 45.0835C40.0736 45.8645 40.0736 47.1308 39.2925 47.9119L30.8072 56.3972C30.0262 57.1782 28.7599 57.1782 27.9788 56.3972C27.1978 55.6161 27.1978 54.3498 27.9788 53.5687Z" fill="url(#paint3_linear_300_284)"/>
<path d="M32.2214 57.8114L32.9285 57.1043C33.7096 56.3232 34.9759 56.3232 35.757 57.1043C36.538 57.8853 36.538 59.1517 35.757 59.9327L35.0499 60.6398C34.2688 61.4209 33.0025 61.4209 32.2214 60.6398C31.4404 59.8588 31.4404 58.5924 32.2214 57.8114Z" fill="url(#paint4_linear_300_284)"/>
</g>
<defs>
<linearGradient id="paint0_linear_300_284" x1="40.1147" y1="8.13377" x2="40.1146" y2="72.1338" gradientUnits="userSpaceOnUse">
<stop stop-color="#0066FF"/>
<stop offset="1" stop-color="#041125"/>
</linearGradient>
<linearGradient id="paint1_linear_300_284" x1="18.1464" y1="36.3202" x2="63.5529" y2="37.2394" gradientUnits="userSpaceOnUse">
<stop stop-color="#023A90"/>
<stop offset="1" stop-color="#61D19C"/>
</linearGradient>
<linearGradient id="paint2_linear_300_284" x1="18.1464" y1="36.3202" x2="63.5529" y2="37.2394" gradientUnits="userSpaceOnUse">
<stop stop-color="#023A90"/>
<stop offset="1" stop-color="#61D19C"/>
</linearGradient>
<linearGradient id="paint3_linear_300_284" x1="18.1464" y1="36.3202" x2="63.5529" y2="37.2394" gradientUnits="userSpaceOnUse">
<stop stop-color="#023A90"/>
<stop offset="1" stop-color="#61D19C"/>
</linearGradient>
<linearGradient id="paint4_linear_300_284" x1="18.1464" y1="36.3202" x2="63.5529" y2="37.2394" gradientUnits="userSpaceOnUse">
<stop stop-color="#023A90"/>
<stop offset="1" stop-color="#61D19C"/>
</linearGradient>
<clipPath id="clip0_300_284">
<rect width="80" height="80" fill="white" transform="translate(0 0.565186)"/>
</clipPath>
</defs>
</svg>
