<svg width="671" height="1139" fill="none" xmlns="http://www.w3.org/2000/svg"><g opacity=".24"><g filter="url('#filter0_d_79_1290')"><path d="M378.289 391.805c-21.455-128.569-214.824-309.35-267.887-309.35-54.553.001-271.603 171.52-271.603 354.386v262.842c71.49-131.984 318.465-372.841 498.848-163.57 0 0 43.883-70.768 40.642-144.308Z" fill="url('#paint0_linear_79_1290')"/></g><g filter="url('#filter1_d_79_1290')"><path d="M-115.776 586.378c-75.741 106.084-66.002 254.413 29.217 349.632 54.226 54.226 125.676 80.73 196.739 79.51 67.939-1.16 135.524-27.668 187.366-79.51l184.98-189.137c-16.017 2.625-487.949 41.729-467.523-233.798 0 0-81.07 19.012-130.779 73.303Z" fill="url('#paint1_linear_79_1290')"/></g><g filter="url('#filter2_d_79_1290')"><path d="M76.921 334.221c-106.083-75.741-370.647-66.84-408.168-29.319-38.574 38.576-70.769 313.335 58.537 442.641L-86.853 933.4c-42.775-143.877-38.45-488.826 237.078-468.4 0 0-19.012-81.07-73.304-130.779Z" fill="url('#paint2_linear_79_1290')"/></g><g filter="url('#filter3_d_79_1290')"><path d="M482.524 746.882c75.741-106.083 112.92-390.618 61.559-441.98-35.648-35.649-336.574-47.532-442.641 58.536L-38.115 528.094C105.762 485.319 19.89 867.05 482.524 746.882Z" fill="url('#paint3_linear_79_1290')"/></g><g filter="url('#filter4_diiii_79_1290')"><path fill-rule="evenodd" clip-rule="evenodd" d="M308.479 673.04c58.001-58.001 58.001-152.039 0-210.04-54.138-54.138-139.674-57.743-197.994-10.816-5.353 4.308-13.111 4.308-18.465.001-58.32-46.915-143.846-43.306-197.98 10.828-58.001 58.001-58.001 152.039 0 210.039L-4.328 774.685c29.556 29.556 68.47 44.051 107.205 43.484 37.659-.264 75.237-14.763 103.97-43.497L308.479 673.04Z" fill="url('#paint4_radial_79_1290')"/></g></g><defs><filter id="filter0_d_79_1290" x="-263.547" y=".578" width="744.354" height="821.921" filterUnits="userSpaceOnUse" color-interpolation-filters="sRGB"><feFlood flood-opacity="0" result="BackgroundImageFix"/><feColorMatrix in="SourceAlpha" values="0 0 0 0 0 0 0 0 0 0 0 0 0 0 0 0 0 0 127 0" result="hardAlpha"/><feOffset dy="20.469"/><feGaussianBlur stdDeviation="51.173"/><feComposite in2="hardAlpha" operator="out"/><feColorMatrix values="0 0 0 0 0 0 0 0 0 0 0 0 0 0 0 0 0 0 0.1 0"/><feBlend in2="BackgroundImageFix" result="effect1_dropShadow_79_1290"/><feBlend in="SourceGraphic" in2="effect1_dropShadow_79_1290" result="shape"/></filter><filter id="filter1_d_79_1290" x="-268.456" y="431.198" width="853.329" height="707.179" filterUnits="userSpaceOnUse" color-interpolation-filters="sRGB"><feFlood flood-opacity="0" result="BackgroundImageFix"/><feColorMatrix in="SourceAlpha" values="0 0 0 0 0 0 0 0 0 0 0 0 0 0 0 0 0 0 127 0" result="hardAlpha"/><feOffset dy="20.469"/><feGaussianBlur stdDeviation="51.173"/><feComposite in2="hardAlpha" operator="out"/><feColorMatrix values="0 0 0 0 0 0 0 0 0 0 0 0 0 0 0 0 0 0 0.1 0"/><feBlend in2="BackgroundImageFix" result="effect1_dropShadow_79_1290"/><feBlend in="SourceGraphic" in2="effect1_dropShadow_79_1290" result="shape"/></filter><filter id="filter2_d_79_1290" x="-467.678" y="194.861" width="720.249" height="861.355" filterUnits="userSpaceOnUse" color-interpolation-filters="sRGB"><feFlood flood-opacity="0" result="BackgroundImageFix"/><feColorMatrix in="SourceAlpha" values="0 0 0 0 0 0 0 0 0 0 0 0 0 0 0 0 0 0 127 0" result="hardAlpha"/><feOffset dy="20.469"/><feGaussianBlur stdDeviation="51.173"/><feComposite in2="hardAlpha" operator="out"/><feColorMatrix values="0 0 0 0 0 0 0 0 0 0 0 0 0 0 0 0 0 0 0.1 0"/><feBlend in2="BackgroundImageFix" result="effect1_dropShadow_79_1290"/><feBlend in="SourceGraphic" in2="effect1_dropShadow_79_1290" result="shape"/></filter><filter id="filter3_d_79_1290" x="-140.462" y="197.652" width="810.637" height="695.557" filterUnits="userSpaceOnUse" color-interpolation-filters="sRGB"><feFlood flood-opacity="0" result="BackgroundImageFix"/><feColorMatrix in="SourceAlpha" values="0 0 0 0 0 0 0 0 0 0 0 0 0 0 0 0 0 0 127 0" result="hardAlpha"/><feOffset dy="20.469"/><feGaussianBlur stdDeviation="51.173"/><feComposite in2="hardAlpha" operator="out"/><feColorMatrix values="0 0 0 0 0 0 0 0 0 0 0 0 0 0 0 0 0 0 0.1 0"/><feBlend in2="BackgroundImageFix" result="effect1_dropShadow_79_1290"/><feBlend in="SourceGraphic" in2="effect1_dropShadow_79_1290" result="shape"/></filter><filter id="filter4_diiii_79_1290" x="-270.61" y="346.81" width="743.739" height="640.984" filterUnits="userSpaceOnUse" color-interpolation-filters="sRGB"><feFlood flood-opacity="0" result="BackgroundImageFix"/><feColorMatrix in="SourceAlpha" values="0 0 0 0 0 0 0 0 0 0 0 0 0 0 0 0 0 0 127 0" result="hardAlpha"/><feOffset dy="48.46"/><feGaussianBlur stdDeviation="60.575"/><feComposite in2="hardAlpha" operator="out"/><feColorMatrix values="0 0 0 0 0 0 0 0 0 0 0 0 0 0 0 0 0 0 0.5 0"/><feBlend in2="BackgroundImageFix" result="effect1_dropShadow_79_1290"/><feBlend in="SourceGraphic" in2="effect1_dropShadow_79_1290" result="shape"/><feColorMatrix in="SourceAlpha" values="0 0 0 0 0 0 0 0 0 0 0 0 0 0 0 0 0 0 127 0" result="hardAlpha"/><feOffset dx="-6.057" dy="18.172"/><feGaussianBlur stdDeviation="12.115"/><feComposite in2="hardAlpha" operator="arithmetic" k2="-1" k3="1"/><feColorMatrix values="0 0 0 0 1 0 0 0 0 1 0 0 0 0 1 0 0 0 0.25 0"/><feBlend in2="shape" result="effect2_innerShadow_79_1290"/><feColorMatrix in="SourceAlpha" values="0 0 0 0 0 0 0 0 0 0 0 0 0 0 0 0 0 0 127 0" result="hardAlpha"/><feOffset dy="6.057"/><feGaussianBlur stdDeviation="6.057"/><feComposite in2="hardAlpha" operator="arithmetic" k2="-1" k3="1"/><feColorMatrix values="0 0 0 0 1 0 0 0 0 1 0 0 0 0 1 0 0 0 0.35 0"/><feBlend in2="effect2_innerShadow_79_1290" result="effect3_innerShadow_79_1290"/><feColorMatrix in="SourceAlpha" values="0 0 0 0 0 0 0 0 0 0 0 0 0 0 0 0 0 0 127 0" result="hardAlpha"/><feOffset dx="6.057" dy="-12.115"/><feGaussianBlur stdDeviation="21.201"/><feComposite in2="hardAlpha" operator="arithmetic" k2="-1" k3="1"/><feColorMatrix values="0 0 0 0 0 0 0 0 0 0 0 0 0 0 0 0 0 0 0.28 0"/><feBlend in2="effect3_innerShadow_79_1290" result="effect4_innerShadow_79_1290"/><feColorMatrix in="SourceAlpha" values="0 0 0 0 0 0 0 0 0 0 0 0 0 0 0 0 0 0 127 0" result="hardAlpha"/><feOffset dx="6.057" dy="-6.057"/><feGaussianBlur stdDeviation="6.057"/><feComposite in2="hardAlpha" operator="arithmetic" k2="-1" k3="1"/><feColorMatrix values="0 0 0 0 0 0 0 0 0 0 0 0 0 0 0 0 0 0 0.3 0"/><feBlend in2="effect4_innerShadow_79_1290" result="effect5_innerShadow_79_1290"/></filter><linearGradient id="paint0_linear_79_1290" x1="-127.302" y1="273.691" x2="667.154" y2="412.739" gradientUnits="userSpaceOnUse"><stop stop-color="#fff"/><stop offset="1" stop-color="#7487A5"/></linearGradient><linearGradient id="paint1_linear_79_1290" x1="292.955" y1="915.376" x2="-388.882" y2="439.346" gradientUnits="userSpaceOnUse"><stop stop-color="#fff"/><stop offset="1" stop-color="#7487A5"/></linearGradient><linearGradient id="paint2_linear_79_1290" x1="-364.105" y1="608.208" x2="295.983" y2="144.765" gradientUnits="userSpaceOnUse"><stop stop-color="#fff"/><stop offset="1" stop-color="#7487A5"/></linearGradient><linearGradient id="paint3_linear_79_1290" x1="530.183" y1="380.556" x2="204.171" y2="1076.31" gradientUnits="userSpaceOnUse"><stop stop-color="#fff"/><stop offset="1" stop-color="#7487A5"/></linearGradient><radialGradient id="paint4_radial_79_1290" cx="0" cy="0" r="1" gradientUnits="userSpaceOnUse" gradientTransform="matrix(-421.31415 443.67772 -567.59213 -538.98265 206.957 555.791)"><stop stop-color="#fff"/><stop offset=".865" stop-color="#7487A5"/></radialGradient></defs></svg>