<svg width="136" height="56" viewBox="0 0 136 56" fill="none" xmlns="http://www.w3.org/2000/svg">
<g clip-path="url('#clip0_79_1340')">
<path d="M81.2908 23.3989V41.107H77.7341V33.5697H70.1514V41.107H66.5946V23.3989H70.1514V30.6789H77.7341V23.3989H81.2908Z" fill="white"></path>
<path d="M97.8487 33.7817C97.8487 34.2963 97.8184 34.7504 97.7427 35.1439H87.466C87.5568 36.158 87.9049 36.9601 88.5254 37.5353C89.146 38.1104 89.9178 38.398 90.826 38.398C92.1427 38.398 93.0811 37.838 93.6411 36.7028H97.4703C97.0616 38.0498 96.2897 39.1698 95.1395 40.0477C93.9892 40.9104 92.5816 41.3342 90.9016 41.3342C89.2216 41.3342 88.3287 41.0315 87.2541 40.4412C86.1946 39.8358 85.347 38.9731 84.7416 37.8834C84.1514 36.7785 83.8487 35.5223 83.8487 34.0844C83.8487 32.6466 84.1514 31.3601 84.7416 30.2553C85.3319 29.1504 86.1643 28.318 87.2238 27.7126C88.2833 27.1223 89.5092 26.8196 90.9016 26.8196C92.2941 26.8196 93.4292 27.1071 94.4735 27.6823C95.533 28.2574 96.3654 29.0747 96.9406 30.1493C97.5308 31.1936 97.8335 32.4044 97.8335 33.7817H97.8487ZM94.1708 32.7677C94.1557 31.8596 93.8227 31.1331 93.187 30.5882C92.5514 30.0282 91.7643 29.7558 90.826 29.7558C89.8876 29.7558 89.2065 30.0282 88.6011 30.5731C88.0108 31.1028 87.6476 31.8293 87.5114 32.7828H94.186L94.1708 32.7677Z" fill="white"></path>
<path d="M99.5287 34.0239C99.5287 32.6012 99.8011 31.345 100.361 30.2401C100.936 29.1353 101.708 28.3028 102.662 27.6974C103.645 27.1071 104.735 26.8044 105.931 26.8044C107.126 26.8044 107.898 27.0163 108.67 27.4401C109.472 27.8639 110.093 28.3936 110.577 29.0444V27.0466H114.149V41.092H110.577V39.0336C110.123 39.6996 109.488 40.2444 108.67 40.6834C107.868 41.1071 106.96 41.319 105.901 41.319C104.841 41.319 103.63 41.0163 102.662 40.4109C101.693 39.8055 100.921 38.9428 100.361 37.8531C99.8011 36.7331 99.5287 35.4617 99.5287 34.0239ZM110.577 34.0844C110.577 33.2217 110.411 32.4801 110.063 31.8747C109.73 31.2542 109.261 30.7698 108.701 30.452C108.125 30.119 107.505 29.9374 106.854 29.9374C106.203 29.9374 105.583 30.1039 105.023 30.4217C104.463 30.7396 104.009 31.2239 103.661 31.8444C103.328 32.4498 103.146 33.1763 103.146 34.0239C103.146 34.8715 103.312 35.6131 103.661 36.2488C104.009 36.8693 104.478 37.3536 105.023 37.7017C105.598 38.0347 106.203 38.2163 106.854 38.2163C107.505 38.2163 108.125 38.0498 108.701 37.732C109.276 37.399 109.73 36.9147 110.063 36.3093C110.396 35.6888 110.577 34.9471 110.577 34.0844Z" fill="white"></path>
<path d="M121.172 29.2412C121.626 28.4996 122.216 27.9093 122.943 27.4855C123.684 27.0617 124.532 26.8499 125.485 26.8499V30.5731H124.547C123.427 30.5731 122.579 30.8304 122.004 31.3601C121.444 31.8899 121.172 32.798 121.172 34.0996V41.092H117.615V27.0466H121.172V29.2261V29.2412Z" fill="white"></path>
<path d="M132.009 29.9676V36.7633C132.009 37.2325 132.115 37.5806 132.342 37.8076C132.584 38.0044 132.962 38.1103 133.507 38.1103H135.157V41.1071H132.932C129.935 41.1071 128.437 39.6541 128.437 36.7481V29.9827H126.757V27.0616H128.437V23.5806H132.009V27.0616H135.157V29.9827H132.009V29.9676Z" fill="white"></path>
<path d="M44.6335 18.5557C43.347 10.8368 31.7384 -0.0151367 28.56 -0.0151367C25.2908 -0.0151367 12.2595 10.2768 12.2595 21.2649V37.0357C16.5578 29.12 31.3751 14.6508 42.1968 27.213C42.1968 27.213 44.8303 22.96 44.6335 18.5557Z" fill="url('#paint0_linear_79_1340')"></path>
<path d="M14.9838 30.24C10.4433 36.6119 11.0184 45.5114 16.7395 51.2325C19.9935 54.4865 24.2768 56.0757 28.5449 56C32.6162 55.9243 36.6724 54.3352 39.7903 51.2325L50.8995 39.8811C49.9308 40.0325 21.613 42.3784 22.8389 25.8508C22.8389 25.8508 17.9654 26.986 14.9838 30.2552V30.24Z" fill="url('#paint1_linear_79_1340')"></path>
<path d="M26.547 15.105C20.1751 10.5644 4.29838 11.0942 2.04324 13.3493C-0.272436 15.665 -2.20973 32.1623 5.55459 39.9266L16.7092 51.0812C14.1362 42.439 14.4086 21.7342 30.9362 22.9601C30.9362 22.9601 29.8011 18.0866 26.5319 15.105H26.547Z" fill="url('#paint2_linear_79_1340')"></path>
<path d="M50.8995 39.8659C55.44 33.494 57.68 16.4215 54.5924 13.334C52.4584 11.1999 34.387 10.4734 28.0151 16.8453L19.6303 26.7286C28.2724 24.1556 23.1114 47.0702 50.8843 39.8659H50.8995Z" fill="url('#paint3_linear_79_1340')"></path>
<path fill-rule="evenodd" clip-rule="evenodd" d="M40.4411 35.4314C43.9222 31.9503 43.9222 26.3049 40.4411 22.8238C37.187 19.5697 32.0562 19.3578 28.56 22.173C28.2422 22.4303 27.773 22.4303 27.4551 22.173C23.9589 19.3578 18.8281 19.5697 15.5741 22.8238C12.093 26.3049 12.093 31.9503 15.5741 35.4314L21.6735 41.5308C23.4443 43.3016 25.7903 44.1795 28.1059 44.1341C30.3611 44.1189 32.6162 43.2411 34.3416 41.5157L40.4411 35.4162V35.4314Z" fill="url('#paint4_radial_79_1340')"></path>
<path d="M68.9152 19.0702C68.4985 19.0702 68.125 19.0009 67.7946 18.8624C67.4642 18.7239 67.22 18.5161 67.0333 18.2668C66.8465 18.0174 66.746 17.7127 66.746 17.3941H67.6222C67.651 17.685 67.7659 17.9205 67.9814 18.1144C68.1969 18.3083 68.5129 18.4053 68.9152 18.4053C69.303 18.4053 69.6191 18.3083 69.8345 18.1283C70.0644 17.9343 70.1793 17.6989 70.1793 17.3941C70.1793 17.1587 70.1075 16.9786 69.9782 16.8262C69.8489 16.6877 69.6765 16.5769 69.4754 16.4938C69.2743 16.4245 69.0157 16.3414 68.6709 16.2445C68.2543 16.1337 67.9239 16.0367 67.6653 15.9259C67.4211 15.8151 67.2056 15.6627 67.0189 15.4411C66.8465 15.2195 66.7603 14.9147 66.7603 14.5408C66.7603 14.2083 66.8465 13.9174 67.0189 13.6681C67.1913 13.4188 67.4355 13.211 67.7515 13.0725C68.0676 12.934 68.4411 12.8647 68.8433 12.8647C69.4323 12.8647 69.9207 13.0033 70.2799 13.2941C70.6534 13.585 70.8689 13.959 70.9263 14.4299H70.0213C69.9926 14.1945 69.8633 14.0006 69.6478 13.8205C69.4323 13.6404 69.1306 13.5573 68.7571 13.5573C68.4124 13.5573 68.1394 13.6404 67.9239 13.8205C67.7084 13.9867 67.5935 14.2222 67.5935 14.5269C67.5935 14.7485 67.651 14.9286 67.7803 15.0671C67.9096 15.2056 68.0676 15.3164 68.2543 15.3857C68.4411 15.4549 68.714 15.5381 69.0588 15.635C69.4754 15.7458 69.8058 15.8566 70.0644 15.9674C70.323 16.0783 70.5385 16.2306 70.7108 16.4661C70.8976 16.6877 70.9838 16.9925 70.9838 17.3664C70.9838 17.6573 70.8976 17.9343 70.7396 18.1975C70.5816 18.4607 70.3373 18.6685 70.0213 18.8347C69.7053 19.0009 69.3461 19.0702 68.9152 19.0702Z" fill="#94ACD1"></path>
<path d="M73.0724 18.9188V13.0312H76.9319V13.6821H73.7989V15.574H76.8714V16.2248H73.7989V18.2529H76.9319V18.9037H73.0724V18.9188Z" fill="#94ACD1"></path>
<path d="M83.2432 18.9188L82.7286 17.6021H79.7924L79.2778 18.9188H78.4454L80.8216 13.0312H81.7297L84.0908 18.9188H83.2584H83.2432ZM81.2454 13.7729L80.0043 16.9512H82.5016L81.2454 13.7729Z" fill="#94ACD1"></path>
<path d="M89.1762 18.9188L87.6778 16.5729H86.4973V18.9188H85.7708V13.0312H88.1319C89.2065 13.0312 89.9935 13.7275 89.9935 14.8021C89.9935 15.8767 89.267 16.4518 88.4497 16.5123L90.0389 18.9188H89.1762ZM89.2368 14.8021C89.2368 14.1361 88.7524 13.6821 88.0562 13.6821H86.5124V15.9372H88.0562C88.7524 15.9372 89.2368 15.468 89.2368 14.8021Z" fill="#94ACD1"></path>
<path d="M91.84 15.9675C91.84 14.1512 93.1719 12.9253 94.867 12.9253C96.5622 12.9253 96.6379 13.4248 97.107 14.0907L96.5016 14.4388C96.1687 13.9393 95.5481 13.5761 94.8822 13.5761C93.5957 13.5761 92.6119 14.5599 92.6119 15.9675C92.6119 17.375 93.5957 18.3588 94.8822 18.3588C96.1687 18.3588 96.1687 17.9956 96.5016 17.4961L97.1222 17.8291C96.6227 18.5102 95.9265 19.0096 94.8822 19.0096C93.187 19.0096 91.8552 17.7685 91.8552 15.9675H91.84Z" fill="#94ACD1"></path>
<path d="M103.161 18.9188V16.2096H99.7103V18.9188H98.9838V13.0312H99.7103V15.574H103.161V13.0312H103.888V18.9188H103.161Z" fill="#94ACD1"></path>
<path d="M113.907 18.9188L112.605 14.1664L111.304 18.9188H110.502L108.822 13.0312H109.639L110.941 17.9502L112.288 13.0312H112.893L114.24 17.9502L115.542 13.0312H116.359L114.679 18.9188H113.877H113.907Z" fill="#94ACD1"></path>
<path d="M118.13 18.9188V13.0312H118.856V18.9188H118.13Z" fill="#94ACD1"></path>
<path d="M122.64 18.9188V13.6821H120.778V13.0312H125.243V13.6821H123.366V18.9188H122.64Z" fill="#94ACD1"></path>
<path d="M131.312 18.9188V16.2096H127.862V18.9188H127.135V13.0312H127.862V15.574H131.312V13.0312H132.039V18.9188H131.312Z" fill="#94ACD1"></path>
</g>
<defs>
<linearGradient id="paint0_linear_79_1340" x1="13.2735" y1="17.2541" x2="60.9643" y2="25.5935" gradientUnits="userSpaceOnUse">
<stop offset="1e-05" stop-color="#0066FF"></stop>
<stop offset="1" stop-color="#041125"></stop>
</linearGradient>
<linearGradient id="paint1_linear_79_1340" x1="39.6541" y1="49.7795" x2="-1.27134" y2="21.2043" gradientUnits="userSpaceOnUse">
<stop offset="1e-05" stop-color="#0066FF"></stop>
<stop offset="1" stop-color="#041125"></stop>
</linearGradient>
<linearGradient id="paint2_linear_79_1340" x1="3.45081" y1="36.3547" x2="43.0746" y2="8.53633" gradientUnits="userSpaceOnUse">
<stop offset="1e-05" stop-color="#0066FF"></stop>
<stop offset="1" stop-color="#041125"></stop>
</linearGradient>
<linearGradient id="paint3_linear_79_1340" x1="44.6335" y1="13.6064" x2="25.0638" y2="55.3642" gradientUnits="userSpaceOnUse">
<stop offset="1e-05" stop-color="#0066FF"></stop>
<stop offset="1" stop-color="#041125"></stop>
</linearGradient>
<radialGradient id="paint4_radial_79_1340" cx="0" cy="0" r="1" gradientUnits="userSpaceOnUse" gradientTransform="translate(41.3147 21.3782) scale(41.9793)">
<stop offset="1e-05" stop-color="#74FABA"></stop>
<stop offset="0.9" stop-color="#000104"></stop>
</radialGradient>
<clipPath id="clip0_79_1340">
<rect width="136" height="56" fill="white"></rect>
</clipPath>
</defs>
</svg>
