<svg width="136" height="56" fill="none" xmlns="http://www.w3.org/2000/svg"><g clip-path="url('#clip0_79_1340')"><path d="M81.29 23.399v17.708h-3.556V33.57h-7.583v7.537h-3.556V23.399h3.556v7.28h7.583v-7.28h3.557ZM97.849 33.782c0 .514-.03.968-.106 1.362H87.466c.09 1.014.439 1.816 1.06 2.391.62.575 1.392.863 2.3.863 1.317 0 2.255-.56 2.815-1.695h3.83a6.485 6.485 0 0 1-2.332 3.345c-1.15.862-2.557 1.286-4.237 1.286-1.68 0-2.573-.303-3.648-.893a6.584 6.584 0 0 1-2.512-2.558c-.59-1.105-.893-2.36-.893-3.799 0-1.437.302-2.724.893-3.829a6.275 6.275 0 0 1 2.482-2.542c1.06-.59 2.285-.893 3.678-.893 1.392 0 2.527.287 3.572.862a5.963 5.963 0 0 1 2.467 2.467c.59 1.045.892 2.255.892 3.633h.016Zm-3.678-1.014c-.015-.908-.348-1.635-.984-2.18-.636-.56-1.423-.832-2.361-.832-.938 0-1.62.272-2.225.817-.59.53-.953 1.256-1.09 2.21h6.675l-.015-.015ZM99.529 34.024c0-1.423.272-2.679.832-3.784.575-1.105 1.347-1.937 2.301-2.543a6.236 6.236 0 0 1 3.269-.893c1.195 0 1.967.212 2.739.636.802.424 1.423.954 1.907 1.604v-1.997h3.572v14.045h-3.572v-2.058c-.454.666-1.089 1.21-1.907 1.65-.802.423-1.71.635-2.769.635-1.06 0-2.271-.303-3.239-.908-.969-.605-1.741-1.468-2.301-2.558-.56-1.12-.832-2.391-.832-3.83Zm11.048.06c0-.862-.166-1.604-.514-2.21a3.532 3.532 0 0 0-1.362-1.422 3.658 3.658 0 0 0-1.847-.515 3.68 3.68 0 0 0-1.831.485c-.56.318-1.014.802-1.362 1.422-.333.606-.515 1.332-.515 2.18 0 .847.166 1.59.515 2.225.348.62.817 1.105 1.362 1.453.575.333 1.18.514 1.831.514s1.271-.166 1.847-.484a3.628 3.628 0 0 0 1.362-1.423c.333-.62.514-1.362.514-2.225ZM121.172 29.241a5.039 5.039 0 0 1 1.771-1.756c.741-.423 1.589-.635 2.542-.635v3.723h-.938c-1.12 0-1.968.257-2.543.787-.56.53-.832 1.438-.832 2.74v6.992h-3.557V27.047h3.557v2.194ZM132.009 29.968v6.795c0 .47.106.818.333 1.045.242.196.62.302 1.165.302h1.65v2.997h-2.225c-2.997 0-4.495-1.453-4.495-4.359v-6.765h-1.68v-2.921h1.68V23.58h3.572v3.48h3.148v2.922h-3.148v-.015Z" fill="#fff"/><path d="M44.633 18.556C43.347 10.836 31.738-.015 28.56-.015c-3.27 0-16.3 10.292-16.3 21.28v15.77c4.298-7.915 19.115-22.384 29.937-9.822 0 0 2.633-4.253 2.436-8.657Z" fill="url('#paint0_linear_79_1340')"/><path d="M14.984 30.24c-4.54 6.372-3.966 15.271 1.755 20.993A16.23 16.23 0 0 0 28.545 56a16.33 16.33 0 0 0 11.245-4.767L50.9 39.88c-.97.151-29.287 2.497-28.061-14.03 0 0-4.874 1.135-7.855 4.404v-.015Z" fill="url('#paint1_linear_79_1340')"/><path d="M26.547 15.105c-6.372-4.54-22.249-4.01-24.504-1.756-2.315 2.316-4.253 18.813 3.512 26.578L16.709 51.08c-2.573-8.642-2.3-29.347 14.227-28.12 0 0-1.135-4.874-4.404-7.856h.015Z" fill="url('#paint2_linear_79_1340')"/><path d="M50.9 39.866c4.54-6.372 6.78-23.444 3.692-26.532-2.134-2.134-20.205-2.86-26.577 3.511L19.63 26.73c8.642-2.573 3.481 20.341 31.254 13.137h.016Z" fill="url('#paint3_linear_79_1340')"/><path fill-rule="evenodd" clip-rule="evenodd" d="M40.441 35.431a8.916 8.916 0 0 0 0-12.607 8.91 8.91 0 0 0-11.881-.651.887.887 0 0 1-1.105 0 8.91 8.91 0 0 0-11.88.65 8.916 8.916 0 0 0 0 12.608l6.099 6.1a8.853 8.853 0 0 0 6.432 2.603 8.887 8.887 0 0 0 6.236-2.618l6.1-6.1v.015Z" fill="url('#paint4_radial_79_1340')"/><path d="M68.915 19.07c-.416 0-.79-.07-1.12-.208a1.802 1.802 0 0 1-.762-.595 1.45 1.45 0 0 1-.287-.873h.876c.029.291.144.527.36.72.215.194.53.291.933.291.388 0 .704-.097.92-.277a.907.907 0 0 0 .344-.734.835.835 0 0 0-.2-.568 1.425 1.425 0 0 0-.504-.332 14.38 14.38 0 0 0-.804-.25c-.417-.11-.747-.207-1.006-.318a1.79 1.79 0 0 1-.646-.485c-.172-.222-.259-.526-.259-.9 0-.333.087-.624.259-.873.172-.25.416-.457.732-.595a2.73 2.73 0 0 1 1.092-.208c.59 0 1.078.138 1.437.43.373.29.589.664.646 1.135h-.905c-.028-.236-.158-.43-.373-.61-.216-.18-.517-.263-.89-.263-.346 0-.619.083-.834.263-.216.167-.33.402-.33.707 0 .222.057.402.186.54.13.139.288.25.474.319.187.069.46.152.805.249.416.11.747.222 1.005.332.259.111.475.264.647.5.187.22.273.526.273.9 0 .29-.086.567-.244.83-.158.264-.403.472-.719.638-.316.166-.675.235-1.106.235ZM73.072 18.919V13.03h3.86v.651h-3.133v1.892h3.072v.65H73.8v2.029h3.133v.65h-3.86v.016ZM83.243 18.919l-.514-1.317h-2.937l-.514 1.317h-.833l2.377-5.888h.908l2.36 5.888h-.847Zm-1.998-5.146-1.24 3.178h2.497l-1.257-3.178ZM89.176 18.919l-1.498-2.346h-1.18v2.346h-.727V13.03h2.36c1.076 0 1.862.696 1.862 1.771s-.726 1.65-1.543 1.71l1.589 2.407h-.863Zm.06-4.117c0-.666-.484-1.12-1.18-1.12h-1.544v2.255h1.544c.696 0 1.18-.469 1.18-1.135ZM91.84 15.967c0-1.816 1.332-3.042 3.027-3.042s1.77.5 2.24 1.166l-.605.348a1.99 1.99 0 0 0-1.62-.863c-1.286 0-2.27.984-2.27 2.391 0 1.408.984 2.392 2.27 2.392 1.287 0 1.287-.363 1.62-.863l.62.333c-.5.681-1.195 1.18-2.24 1.18-1.695 0-3.027-1.24-3.027-3.042h-.015ZM103.161 18.919v-2.71h-3.45v2.71h-.727V13.03h.726v2.543h3.451v-2.543h.727v5.888h-.727ZM113.907 18.919l-1.302-4.753-1.301 4.753h-.802l-1.68-5.888h.817l1.302 4.92 1.347-4.92h.605l1.347 4.92 1.302-4.92h.817l-1.68 5.888h-.802.03ZM118.13 18.919V13.03h.726v5.888h-.726ZM122.64 18.919v-5.237h-1.862v-.65h4.465v.65h-1.877v5.237h-.726ZM131.312 18.919v-2.71h-3.45v2.71h-.727V13.03h.727v2.543h3.45v-2.543h.727v5.888h-.727Z" fill="#94ACD1"/></g><defs><linearGradient id="paint0_linear_79_1340" x1="13.274" y1="17.254" x2="60.964" y2="25.593" gradientUnits="userSpaceOnUse"><stop offset="0" stop-color="#06F"/><stop offset="1" stop-color="#041125"/></linearGradient><linearGradient id="paint1_linear_79_1340" x1="39.654" y1="49.779" x2="-1.271" y2="21.204" gradientUnits="userSpaceOnUse"><stop offset="0" stop-color="#06F"/><stop offset="1" stop-color="#041125"/></linearGradient><linearGradient id="paint2_linear_79_1340" x1="3.451" y1="36.355" x2="43.075" y2="8.536" gradientUnits="userSpaceOnUse"><stop offset="0" stop-color="#06F"/><stop offset="1" stop-color="#041125"/></linearGradient><linearGradient id="paint3_linear_79_1340" x1="44.633" y1="13.606" x2="25.064" y2="55.364" gradientUnits="userSpaceOnUse"><stop offset="0" stop-color="#06F"/><stop offset="1" stop-color="#041125"/></linearGradient><radialGradient id="paint4_radial_79_1340" cx="0" cy="0" r="1" gradientUnits="userSpaceOnUse" gradientTransform="translate(41.315 21.378) scale(41.9793)"><stop offset="0" stop-color="#74FABA"/><stop offset=".9" stop-color="#000104"/></radialGradient><clipPath id="clip0_79_1340"><path fill="#fff" d="M0 0h136v56H0z"/></clipPath></defs></svg>