<svg width="112" height="72" fill="none" xmlns="http://www.w3.org/2000/svg"><path d="M73.31 24.545v12.481h-2.503v-5.31H65.46v5.31h-2.503V24.545h2.503v5.132h5.347v-5.132h2.504ZM84.984 31.859c0 .357-.024.68-.072.965H77.67c.06.715.31 1.276.751 1.681s.984.608 1.627.608c.93 0 1.592-.4 1.985-1.198h2.7a4.558 4.558 0 0 1-1.645 2.36c-.81.608-1.806.912-2.986.912-.954 0-1.812-.208-2.575-.625a4.607 4.607 0 0 1-1.77-1.806c-.417-.775-.626-1.67-.626-2.683 0-1.025.209-1.925.626-2.7a4.367 4.367 0 0 1 1.752-1.788c.751-.417 1.616-.626 2.593-.626.942 0 1.782.203 2.522.608.75.405 1.329.983 1.734 1.735.417.739.626 1.591.626 2.557Zm-2.593-.716c-.012-.643-.244-1.156-.697-1.538-.453-.393-1.008-.59-1.663-.59-.62 0-1.145.191-1.574.573-.417.37-.674.888-.769 1.555h4.703ZM86.167 32.038c0-1.002.197-1.89.59-2.665.406-.775.948-1.37 1.628-1.788a4.378 4.378 0 0 1 2.307-.626c.739 0 1.382.149 1.93.447.561.298 1.008.674 1.342 1.127V27.12h2.521v9.906h-2.521v-1.448c-.322.465-.769.852-1.341 1.162-.56.298-1.21.447-1.95.447a4.255 4.255 0 0 1-2.288-.643c-.68-.43-1.222-1.031-1.628-1.806-.393-.787-.59-1.687-.59-2.7Zm7.797.035c0-.608-.12-1.126-.358-1.556a2.447 2.447 0 0 0-.965-1 2.532 2.532 0 0 0-1.306-.358c-.465 0-.894.113-1.287.34-.394.226-.716.56-.966 1-.238.43-.357.942-.357 1.539 0 .596.119 1.12.357 1.573.25.441.572.78.966 1.02.405.238.834.357 1.287.357.465 0 .9-.113 1.306-.34a2.6 2.6 0 0 0 .965-1.001c.239-.441.358-.966.358-1.574ZM101.434 28.658a3.542 3.542 0 0 1 1.252-1.234c.524-.298 1.12-.447 1.788-.447v2.628h-.662c-.787 0-1.383.185-1.788.555-.393.37-.59 1.013-.59 1.931v4.935H98.93V27.12h2.504v1.538ZM109.075 29.176v4.793c0 .334.077.578.232.733.167.143.441.214.823.214h1.162v2.11h-1.574c-2.11 0-3.165-1.025-3.165-3.075v-4.775h-1.18V27.12h1.18v-2.45h2.522v2.45h2.217v2.056h-2.217Z" fill="#0F284F"/><g opacity=".6" fill="#0F284F"><path d="M65.296 44.184c.17.027.324.096.462.207.143.112.255.25.335.416.085.165.127.342.127.53 0 .236-.06.45-.18.643-.121.187-.298.337-.53.449-.228.107-.498.16-.81.16h-1.743v-4.67h1.675c.317 0 .588.053.811.16.224.103.391.244.503.423.111.178.167.38.167.603 0 .277-.076.507-.228.69a1.246 1.246 0 0 1-.59.389Zm-1.73-.248h1.026c.286 0 .507-.067.663-.201.157-.134.235-.32.235-.556 0-.237-.078-.423-.234-.557-.157-.134-.382-.2-.677-.2h-1.012v1.514Zm1.08 2.15c.303 0 .54-.07.71-.214.17-.143.255-.341.255-.596 0-.26-.09-.462-.268-.61-.18-.152-.418-.228-.717-.228h-1.06v1.649h1.08ZM70.933 46.59l-1.112-1.91h-.737v1.91h-.61v-4.671h1.508c.353 0 .65.06.89.18.246.121.43.284.55.49.12.205.181.44.181.703 0 .322-.094.606-.281.852-.183.245-.46.408-.831.489l1.173 1.956h-.73Zm-1.85-2.4h.899c.33 0 .578-.08.743-.24.166-.166.248-.385.248-.658 0-.276-.082-.491-.248-.643-.16-.152-.408-.228-.743-.228h-.898v1.77ZM76.076 46.636c-.434 0-.83-.1-1.187-.301a2.288 2.288 0 0 1-.85-.851 2.476 2.476 0 0 1-.309-1.233c0-.456.103-.865.308-1.227.21-.366.494-.65.851-.85a2.337 2.337 0 0 1 1.187-.309c.437 0 .835.103 1.192.308.358.201.64.483.845.845.205.362.308.773.308 1.233 0 .46-.103.87-.308 1.233a2.239 2.239 0 0 1-.845.85 2.39 2.39 0 0 1-1.192.302Zm0-.53c.326 0 .618-.075.877-.227.264-.152.47-.368.617-.65.152-.281.228-.608.228-.978 0-.376-.076-.702-.228-.979a1.589 1.589 0 0 0-.61-.65 1.717 1.717 0 0 0-.884-.227c-.331 0-.626.075-.885.227-.26.152-.465.369-.617.65a2.054 2.054 0 0 0-.22.979c0 .37.073.697.22.978.152.282.358.498.617.65.263.152.558.228.885.228ZM86.503 41.919l-1.353 4.67h-.684l-1.085-3.759-1.126 3.76-.677.006-1.307-4.677h.65l1.019 3.96 1.126-3.96h.683l1.072 3.947 1.026-3.947h.656ZM90.059 46.636c-.309 0-.585-.053-.831-.16a1.418 1.418 0 0 1-.57-.456 1.184 1.184 0 0 1-.214-.677h.65a.876.876 0 0 0 .268.556c.16.148.393.221.697.221.29 0 .518-.071.683-.214a.713.713 0 0 0 .255-.563.635.635 0 0 0-.148-.436.94.94 0 0 0-.368-.254 5.744 5.744 0 0 0-.597-.188 5.424 5.424 0 0 1-.743-.241 1.235 1.235 0 0 1-.476-.375c-.13-.175-.195-.407-.195-.697 0-.255.065-.48.195-.677.13-.197.31-.349.543-.456.236-.107.507-.16.81-.16.438 0 .796.109 1.073.328.281.219.44.51.475.87h-.67a.711.711 0 0 0-.281-.468c-.165-.139-.384-.208-.657-.208-.254 0-.462.067-.623.201-.16.13-.241.313-.241.55 0 .17.047.308.14.415.099.107.217.19.356.248.143.054.341.116.596.188.308.085.556.17.744.254a1.2 1.2 0 0 1 .482.382c.134.17.201.402.201.697 0 .228-.06.442-.18.643-.121.201-.3.365-.537.49a1.769 1.769 0 0 1-.837.187ZM94.528 42.415v1.561h1.702v.502h-1.702v1.609h1.903v.502h-2.513v-4.677h2.513v.503h-1.903ZM101.22 46.59l-1.112-1.91h-.737v1.91h-.61v-4.671h1.507c.353 0 .65.06.892.18.245.121.429.284.549.49.121.205.181.44.181.703 0 .322-.094.606-.281.852-.184.245-.461.408-.831.489l1.172 1.956h-.73Zm-1.85-2.4h.898c.331 0 .579-.08.744-.24.166-.166.248-.385.248-.658 0-.276-.082-.491-.248-.643-.161-.152-.409-.228-.744-.228h-.897v1.77Z"/></g><g filter="url('#filter0_d_141_1630')"><path d="M47.472 26.478c-.908-5.441-9.092-13.092-11.338-13.092-2.309 0-11.495 7.259-11.495 14.998v11.124c3.026-5.586 13.479-15.78 21.113-6.922 0 0 1.857-2.995 1.72-6.108Z" fill="url('#paint0_linear_141_1630')"/></g><g filter="url('#filter1_d_141_1630')"><path d="M26.562 34.713c-3.206 4.49-2.794 10.767 1.236 14.797a11.461 11.461 0 0 0 8.327 3.365 11.457 11.457 0 0 0 7.93-3.365l7.828-8.005c-.678.112-20.65 1.767-19.786-9.894 0 0-3.431.804-5.535 3.102Z" fill="url('#paint1_linear_141_1630')"/></g><g filter="url('#filter2_d_141_1630')"><path d="M34.717 24.041c-4.49-3.205-15.686-2.828-17.274-1.24-1.633 1.632-2.996 13.26 2.477 18.733l7.866 7.866c-1.81-6.09-1.628-20.688 10.033-19.824 0 0-.804-3.43-3.102-5.535Z" fill="url('#paint2_linear_141_1630')"/></g><g filter="url('#filter3_d_141_1630')"><path d="M51.883 41.506c3.205-4.49 4.779-16.532 2.605-18.706-1.508-1.508-14.244-2.011-18.733 2.478l-5.907 6.968c6.09-1.81 2.455 14.346 22.035 9.26Z" fill="url('#paint3_linear_141_1630')"/></g><g filter="url('#filter4_diiii_141_1630')"><path fill-rule="evenodd" clip-rule="evenodd" d="M44.515 38.38a6.286 6.286 0 0 0-7.221-10.085c-.953.47-2.145.47-3.098 0a6.286 6.286 0 0 0-7.22 10.086l4.3 4.302a6.267 6.267 0 0 0 4.527 1.84 6.266 6.266 0 0 0 4.411-1.84l4.301-4.302Z" fill="url('#paint4_radial_141_1630')"/></g><defs><filter id="filter0_d_141_1630" x="8.815" y=".726" width="54.489" height="57.772" filterUnits="userSpaceOnUse" color-interpolation-filters="sRGB"><feFlood flood-opacity="0" result="BackgroundImageFix"/><feColorMatrix in="SourceAlpha" values="0 0 0 0 0 0 0 0 0 0 0 0 0 0 0 0 0 0 127 0" result="hardAlpha"/><feOffset dy="3.165"/><feGaussianBlur stdDeviation="7.912"/><feComposite in2="hardAlpha" operator="out"/><feColorMatrix values="0 0 0 0 0 0 0 0 0 0 0 0 0 0 0 0 0 0 0.1 0"/><feBlend in2="BackgroundImageFix" result="effect1_dropShadow_141_1630"/><feBlend in="SourceGraphic" in2="effect1_dropShadow_141_1630" result="shape"/></filter><filter id="filter1_d_141_1630" x="8.607" y="18.951" width="59.101" height="52.916" filterUnits="userSpaceOnUse" color-interpolation-filters="sRGB"><feFlood flood-opacity="0" result="BackgroundImageFix"/><feColorMatrix in="SourceAlpha" values="0 0 0 0 0 0 0 0 0 0 0 0 0 0 0 0 0 0 127 0" result="hardAlpha"/><feOffset dy="3.165"/><feGaussianBlur stdDeviation="7.912"/><feComposite in2="hardAlpha" operator="out"/><feColorMatrix values="0 0 0 0 0 0 0 0 0 0 0 0 0 0 0 0 0 0 0.1 0"/><feBlend in2="BackgroundImageFix" result="effect1_dropShadow_141_1630"/><feBlend in="SourceGraphic" in2="effect1_dropShadow_141_1630" result="shape"/></filter><filter id="filter2_d_141_1630" x=".175" y="8.949" width="53.469" height="59.441" filterUnits="userSpaceOnUse" color-interpolation-filters="sRGB"><feFlood flood-opacity="0" result="BackgroundImageFix"/><feColorMatrix in="SourceAlpha" values="0 0 0 0 0 0 0 0 0 0 0 0 0 0 0 0 0 0 127 0" result="hardAlpha"/><feOffset dy="3.165"/><feGaussianBlur stdDeviation="7.912"/><feComposite in2="hardAlpha" operator="out"/><feColorMatrix values="0 0 0 0 0 0 0 0 0 0 0 0 0 0 0 0 0 0 0.1 0"/><feBlend in2="BackgroundImageFix" result="effect1_dropShadow_141_1630"/><feBlend in="SourceGraphic" in2="effect1_dropShadow_141_1630" result="shape"/></filter><filter id="filter3_d_141_1630" x="14.024" y="9.067" width="57.294" height="52.424" filterUnits="userSpaceOnUse" color-interpolation-filters="sRGB"><feFlood flood-opacity="0" result="BackgroundImageFix"/><feColorMatrix in="SourceAlpha" values="0 0 0 0 0 0 0 0 0 0 0 0 0 0 0 0 0 0 127 0" result="hardAlpha"/><feOffset dy="3.165"/><feGaussianBlur stdDeviation="7.912"/><feComposite in2="hardAlpha" operator="out"/><feColorMatrix values="0 0 0 0 0 0 0 0 0 0 0 0 0 0 0 0 0 0 0.1 0"/><feBlend in2="BackgroundImageFix" result="effect1_dropShadow_141_1630"/><feBlend in="SourceGraphic" in2="effect1_dropShadow_141_1630" result="shape"/></filter><filter id="filter4_diiii_141_1630" x="6.402" y="16.411" width="58.687" height="54.337" filterUnits="userSpaceOnUse" color-interpolation-filters="sRGB"><feFlood flood-opacity="0" result="BackgroundImageFix"/><feColorMatrix in="SourceAlpha" values="0 0 0 0 0 0 0 0 0 0 0 0 0 0 0 0 0 0 127 0" result="hardAlpha"/><feOffset dy="7.493"/><feGaussianBlur stdDeviation="9.366"/><feComposite in2="hardAlpha" operator="out"/><feColorMatrix values="0 0 0 0 0 0 0 0 0 0 0 0 0 0 0 0 0 0 0.5 0"/><feBlend in2="BackgroundImageFix" result="effect1_dropShadow_141_1630"/><feBlend in="SourceGraphic" in2="effect1_dropShadow_141_1630" result="shape"/><feColorMatrix in="SourceAlpha" values="0 0 0 0 0 0 0 0 0 0 0 0 0 0 0 0 0 0 127 0" result="hardAlpha"/><feOffset dx="-.937" dy="2.81"/><feGaussianBlur stdDeviation="1.873"/><feComposite in2="hardAlpha" operator="arithmetic" k2="-1" k3="1"/><feColorMatrix values="0 0 0 0 1 0 0 0 0 1 0 0 0 0 1 0 0 0 0.25 0"/><feBlend in2="shape" result="effect2_innerShadow_141_1630"/><feColorMatrix in="SourceAlpha" values="0 0 0 0 0 0 0 0 0 0 0 0 0 0 0 0 0 0 127 0" result="hardAlpha"/><feOffset dy=".937"/><feGaussianBlur stdDeviation=".937"/><feComposite in2="hardAlpha" operator="arithmetic" k2="-1" k3="1"/><feColorMatrix values="0 0 0 0 1 0 0 0 0 1 0 0 0 0 1 0 0 0 0.35 0"/><feBlend in2="effect2_innerShadow_141_1630" result="effect3_innerShadow_141_1630"/><feColorMatrix in="SourceAlpha" values="0 0 0 0 0 0 0 0 0 0 0 0 0 0 0 0 0 0 127 0" result="hardAlpha"/><feOffset dx=".937" dy="-1.873"/><feGaussianBlur stdDeviation="3.278"/><feComposite in2="hardAlpha" operator="arithmetic" k2="-1" k3="1"/><feColorMatrix values="0 0 0 0 0 0 0 0 0 0 0 0 0 0 0 0 0 0 0.28 0"/><feBlend in2="effect3_innerShadow_141_1630" result="effect4_innerShadow_141_1630"/><feColorMatrix in="SourceAlpha" values="0 0 0 0 0 0 0 0 0 0 0 0 0 0 0 0 0 0 127 0" result="hardAlpha"/><feOffset dx=".937" dy="-.937"/><feGaussianBlur stdDeviation=".937"/><feComposite in2="hardAlpha" operator="arithmetic" k2="-1" k3="1"/><feColorMatrix values="0 0 0 0 0 0 0 0 0 0 0 0 0 0 0 0 0 0 0.3 0"/><feBlend in2="effect4_innerShadow_141_1630" result="effect5_innerShadow_141_1630"/></filter><linearGradient id="paint0_linear_141_1630" x1="26.074" y1="21.479" x2="59.697" y2="27.364" gradientUnits="userSpaceOnUse"><stop stop-color="#06F"/><stop offset="1" stop-color="#041125"/></linearGradient><linearGradient id="paint1_linear_141_1630" x1="43.86" y1="48.637" x2="15.004" y2="28.49" gradientUnits="userSpaceOnUse"><stop stop-color="#06F"/><stop offset="1" stop-color="#041125"/></linearGradient><linearGradient id="paint2_linear_141_1630" x1="16.052" y1="35.637" x2="43.988" y2="16.023" gradientUnits="userSpaceOnUse"><stop stop-color="#06F"/><stop offset="1" stop-color="#041125"/></linearGradient><linearGradient id="paint3_linear_141_1630" x1="53.9" y1="26.002" x2="40.102" y2="55.448" gradientUnits="userSpaceOnUse"><stop stop-color="#06F"/><stop offset="1" stop-color="#041125"/></linearGradient><radialGradient id="paint4_radial_141_1630" cx="0" cy="0" r="1" gradientUnits="userSpaceOnUse" gradientTransform="matrix(-17.83143 18.77727 -24.02159 -22.81158 40.219 33.419)"><stop stop-color="#74FABA"/><stop offset=".865" stop-color="#000104"/></radialGradient></defs></svg>