<svg width="80" height="81" viewBox="0 0 80 81" fill="none" xmlns="http://www.w3.org/2000/svg">
<path d="M32.4957 44.0787C32.4957 43.0365 32.4022 42.0345 32.2285 41.0725H18.3867V46.7642H26.2963C25.9489 48.5946 24.9068 50.1445 23.3436 51.1866V54.8876H28.1134C30.8924 52.3223 32.4957 48.5546 32.4957 44.0787Z" fill="#4285F4"></path>
<path d="M18.3869 58.4416C22.3551 58.4416 25.6819 57.1323 28.1136 54.8877L23.3438 51.1867C22.0344 52.0685 20.3643 52.603 18.3869 52.603C14.5657 52.603 11.319 50.0243 10.1567 46.5505H5.2666V50.345C7.6849 55.1415 12.6418 58.4416 18.3869 58.4416Z" fill="#34A853"></path>
<path d="M10.1561 46.5372C9.86214 45.6554 9.68845 44.7202 9.68845 43.7448C9.68845 42.7695 9.86214 41.8342 10.1561 40.9524V37.158H5.26603C4.26397 39.1354 3.68945 41.3666 3.68945 43.7448C3.68945 46.123 4.26397 48.3543 5.26603 50.3317L9.07385 47.3656L10.1561 46.5372Z" fill="#FBBC05"></path>
<path d="M18.3869 34.8999C20.5513 34.8999 22.4753 35.6481 24.0118 37.091L28.2204 32.8824C25.6685 30.5042 22.3551 29.0479 18.3869 29.0479C12.6418 29.0479 7.6849 32.348 5.2666 37.1579L10.1567 40.9523C11.319 37.4785 14.5657 34.8999 18.3869 34.8999Z" fill="#EA4335"></path>
<path d="M57.8271 63.8272C57.8271 66.329 59.7725 68.4136 62.4128 68.4136C65.053 68.4136 67.1377 66.2593 67.1377 63.6887C67.1377 61.1181 65.1923 59.1023 62.5521 59.1023C59.9118 59.1023 57.8968 61.2566 57.8271 63.8272Z" fill="#6001D2"></path>
<path d="M67.8332 39.2988L60.3984 57.3651H68.8059L76.3104 39.2988H67.8332Z" fill="#6001D2"></path>
<path d="M50.1841 75.4312L61.5104 48.1233H54.0059L49.4203 59.5881L45.1117 48.1233H37.4688L45.5984 68.1349L42.6796 75.4312H50.1841Z" fill="#6001D2"></path>
<path fill-rule="evenodd" clip-rule="evenodd" d="M48.7048 16.2951C48.0855 16.3671 47.6132 16.87 47.5693 17.5043C47.5504 17.7775 47.5563 17.7961 48.1758 19.3901C49.5851 23.0169 49.9266 23.8897 49.984 24.0126C50.1231 24.3101 50.3188 24.59 50.5632 24.8412C50.7507 25.034 50.8744 25.1376 51.0836 25.2774C51.4513 25.5229 51.6338 25.5908 53.0646 26.0144C54.4583 26.4271 55.2197 26.7014 55.8759 27.0271C56.7259 27.449 57.319 27.9289 57.6941 28.4983C57.9633 28.9069 58.2017 29.6395 58.3054 30.3771C58.346 30.6653 58.3462 31.3026 58.3059 31.5632C58.2184 32.1289 58.0436 32.6029 57.7762 32.9996C57.634 33.2105 57.6835 33.1752 57.8902 32.9181C58.4753 32.1906 59.0714 30.9473 59.3755 29.8198C59.7436 28.4552 59.7936 26.99 59.5196 25.6031C58.9859 22.9023 57.2809 20.5716 54.8797 19.2602C54.7288 19.1777 54.1541 18.8765 53.375 18.4715C53.2568 18.41 53.0956 18.3258 53.0168 18.2844C52.938 18.243 52.7768 18.1589 52.6586 18.0974C52.5403 18.0359 52.2 17.8586 51.9023 17.7034C51.6045 17.5481 51.2714 17.3744 51.1619 17.3174C50.8283 17.1434 50.6044 17.0265 50.4375 16.9391C49.6655 16.535 49.3387 16.3716 49.2455 16.3433C49.1478 16.3135 48.8996 16.2754 48.8373 16.2805C48.8242 16.2816 48.7646 16.2881 48.7048 16.2951Z" fill="url('#paint0_radial_300_840')"></path>
<path d="M50.388 29.8341C50.3452 29.8594 50.2851 29.8961 50.2545 29.9156C50.2238 29.935 50.1557 29.9773 50.1032 30.0096C49.9104 30.128 49.3975 30.444 48.9568 30.716C48.6672 30.8948 48.6242 30.9214 48.2563 31.1498C48.1249 31.2313 47.9852 31.3172 47.9458 31.3407C47.9064 31.3642 47.738 31.4679 47.5716 31.5711C47.4052 31.6743 47.1151 31.8534 46.9268 31.9692C46.7385 32.0849 46.4018 32.2926 46.1785 32.4308C45.9552 32.5689 45.6614 32.7501 45.5257 32.8333C45.3899 32.9165 45.2646 32.9969 45.247 33.0119C45.221 33.0343 44.0138 33.7821 43.4081 34.1511C42.948 34.4314 42.4158 34.6188 41.871 34.6925C41.6173 34.7267 41.1374 34.7268 40.8844 34.6926C40.1986 34.6001 39.5669 34.3443 39.0258 33.9403C38.8135 33.7818 38.414 33.3826 38.2612 33.1763C37.9012 32.6903 37.6684 32.169 37.5478 31.5792C37.52 31.4435 37.4937 31.3288 37.4894 31.3244C37.4782 31.3131 37.4985 31.5181 37.5353 31.7862C37.5735 32.065 37.6548 32.4682 37.7425 32.8131C38.4209 35.4822 40.3513 37.6532 42.9646 38.686C43.7171 38.9833 44.4765 39.1707 45.3028 39.2625C45.6132 39.2973 46.492 39.3111 46.8161 39.2865C48.302 39.1739 49.5959 38.7365 50.9232 37.8977C51.0414 37.823 51.2635 37.683 51.4167 37.5865C51.57 37.49 51.7634 37.3673 51.8466 37.3139C51.9298 37.2605 52.0301 37.1974 52.0695 37.1737C52.1089 37.15 52.1878 37.1005 52.2447 37.0637C52.3016 37.0268 52.5452 36.8728 52.786 36.7213L53.749 36.113L54.0796 35.9042L54.0916 35.8967L54.128 35.8737L54.1453 35.8627L54.3887 35.7089L55.23 35.1775C56.302 34.5039 56.6217 34.2675 57.1197 33.7796C57.3273 33.5763 57.6404 33.2291 57.6559 33.1851C57.6591 33.1761 57.7147 33.0903 57.7795 32.9943C58.0431 32.6044 58.2188 32.1266 58.306 31.5633C58.3463 31.3027 58.346 30.6654 58.3055 30.3771C58.2271 29.8197 58.049 29.1875 57.857 28.7849C57.5421 28.1248 56.8713 27.525 55.9076 27.0419C55.6415 26.9086 55.3668 26.7865 55.3361 26.7881C55.3216 26.7889 54.4248 27.337 53.3433 28.0062C52.2618 28.6755 51.3232 29.2563 51.2575 29.2971C51.1919 29.3379 51.079 29.4068 51.0068 29.4503L50.388 29.8341Z" fill="url('#paint1_radial_300_840')"></path>
<path d="M37.4734 26.6234L37.478 31.2846L37.5383 31.5552C37.727 32.4015 38.0538 33.0116 38.622 33.5783C38.8893 33.8449 39.0937 34.0056 39.3833 34.177C39.9961 34.5397 40.6557 34.7186 41.3782 34.7183C42.1349 34.7179 42.7894 34.5291 43.464 34.1168C43.5778 34.0473 44.0238 33.7727 44.4551 33.5066L45.2392 33.0229V27.4926V21.9623L45.239 16.9032C45.2388 13.6755 45.2329 11.7586 45.2227 11.6083C45.1584 10.6632 44.7632 9.79447 44.0986 9.13734C43.8946 8.93567 43.7204 8.80097 43.2012 8.44372C42.9429 8.26593 42.47 7.94025 42.1504 7.71999C41.8308 7.49971 41.3042 7.13683 40.9801 6.91358C40.6561 6.69034 40.194 6.37182 39.9532 6.20579C39.4515 5.85989 39.4122 5.83583 39.2606 5.78157C39.0633 5.711 38.8543 5.68508 38.6555 5.70654C38.0763 5.7691 37.6126 6.18732 37.4921 6.7559C37.4733 6.84437 37.4699 8.02164 37.4696 14.4114L37.4694 21.9623H37.4688L37.4734 26.6234Z" fill="url('#paint2_linear_300_840')"></path>
<defs>
<radialGradient id="paint0_radial_300_840" cx="0" cy="0" r="1" gradientUnits="userSpaceOnUse" gradientTransform="translate(58.9318 29.3979) rotate(-130.909) scale(17.3597 12.4911)">
<stop stop-color="#00CACC"></stop>
<stop offset="1" stop-color="#048FCE"></stop>
</radialGradient>
<radialGradient id="paint1_radial_300_840" cx="0" cy="0" r="1" gradientUnits="userSpaceOnUse" gradientTransform="translate(40.3829 35.7269) rotate(-23.1954) scale(18.7771 31.2926)">
<stop stop-color="#00BBEC"></stop>
<stop offset="1" stop-color="#2756A9"></stop>
</radialGradient>
<linearGradient id="paint2_linear_300_840" x1="41.354" y1="5.69922" x2="41.354" y2="34.7183" gradientUnits="userSpaceOnUse">
<stop stop-color="#00BBEC"></stop>
<stop offset="1" stop-color="#2756A9"></stop>
</linearGradient>
</defs>
</svg>
