<svg width="80" height="81" viewBox="0 0 80 81" fill="none" xmlns="http://www.w3.org/2000/svg">
<path d="M40.0004 15.6917V8.56519M45.2394 35.4699H40.0004M40.0004 35.4699V42.6434M40.0004 35.4699H34.8426M19.9785 35.4699H18.7363M60.0223 35.4699H61.2645M54.1335 21.2962L56.28 19.2309M25.8673 21.2962L23.7208 19.2309M34.5425 50.4559H45.6346M28.6695 40.8714L33.0819 48.6425C33.7568 49.8311 34.1116 51.1745 34.1116 52.5413V56.4009C34.1116 59.7205 36.8027 62.4115 40.1222 62.4115V62.4115C43.4418 62.4115 46.1329 59.7205 46.1329 56.4009V52.5857C46.1329 51.191 46.5039 49.8214 47.208 48.6174L51.4531 41.3587C52.6173 39.4093 53.1994 37.2433 53.1994 34.8608C53.1994 27.7128 47.0877 21.8242 40.0004 21.8242C32.9448 21.8242 26.8014 27.7455 26.8014 34.8608C26.8014 36.5394 27.4241 38.543 28.6695 40.8714Z" stroke="url('#paint0_linear_300_955')" stroke-width="4" stroke-linecap="round" stroke-linejoin="round"></path>
<path d="M32.25 8.56519H25C16.1634 8.56519 9 15.7286 9 24.5652V54.5652C9 63.4017 16.1634 70.5652 25 70.5652H32.5805C33.6488 70.5652 34.6728 70.9926 35.4241 71.7521L40 76.3777L44.5759 71.7521C45.3272 70.9926 46.3512 70.5652 47.4195 70.5652H55C63.8366 70.5652 71 63.4017 71 54.5652V24.5652C71 15.7286 63.8366 8.56519 55 8.56519H47.75" stroke="url('#paint1_linear_300_955')" stroke-width="4" stroke-linecap="round"></path>
<defs>
<linearGradient id="paint0_linear_300_955" x1="22.4584" y1="55.9104" x2="51.8634" y2="25.4978" gradientUnits="userSpaceOnUse">
<stop stop-color="#023A90"></stop>
<stop offset="1" stop-color="#61D19C"></stop>
</linearGradient>
<linearGradient id="paint1_linear_300_955" x1="40.1111" y1="8.56522" x2="40.111" y2="76.3777" gradientUnits="userSpaceOnUse">
<stop stop-color="#0066FF"></stop>
<stop offset="1" stop-color="#041125"></stop>
</linearGradient>
</defs>
</svg>
