<svg width="80" height="81" viewBox="0 0 80 81" fill="none" xmlns="http://www.w3.org/2000/svg">
<path d="M42.2562 44.4625L46.9742 41.7386C48.5239 40.8439 49.0549 38.8623 48.1602 37.3125V37.3125C47.2654 35.7628 45.2838 35.2319 43.7341 36.1266L39.0161 38.8505L54.4805 29.9222C56.0454 29.0187 56.5815 27.0177 55.678 25.4528V25.4528C54.7746 23.8879 52.7735 23.3517 51.2087 24.2552L31.0599 35.8881L33.527 26.8349C33.9981 25.1064 32.9742 23.3243 31.2437 22.8606V22.8606C29.5217 22.3992 27.751 23.4183 27.285 25.1391L22.1456 44.1158C21.3845 47.6364 21.9046 50.9555 23.7045 54.0729C27.1894 60.109 35.7591 63.2521 42.0456 59.6226L51.8561 53.9585C53.421 53.055 53.9572 51.054 53.0537 49.4891V49.4891C52.1502 47.9242 50.1492 47.388 48.5843 48.2915L45.4962 50.0744L50.7055 47.0668C52.2552 46.1721 52.7861 44.1905 51.8914 42.6409V42.6409C50.9967 41.0912 49.0152 40.5602 47.4655 41.4549L42.2562 44.4625Z" stroke="url('#paint0_linear_300_775')" stroke-width="4" stroke-linecap="round" stroke-linejoin="round"></path>
<path d="M40 8.56519C22.3269 8.56519 8 22.8921 8 40.5652C8 58.2383 22.3269 72.5652 40 72.5652C57.6731 72.5652 72 58.2383 72 40.5652C72 33.2609 69.5527 26.5282 65.4334 21.1423" stroke="url('#paint1_linear_300_775')" stroke-width="4" stroke-linecap="round"></path>
<path d="M38.4005 16.3806L44.9243 19.7047M62.6241 8.50994L59.3 15.0337M48.2056 6.96403L50.5961 14.3214" stroke="url('#paint2_linear_300_775')" stroke-width="4" stroke-linecap="round"></path>
<defs>
<linearGradient id="paint0_linear_300_775" x1="31.4906" y1="60.2072" x2="34.9726" y2="25.309" gradientUnits="userSpaceOnUse">
<stop stop-color="#023A90"></stop>
<stop offset="1" stop-color="#61D19C"></stop>
</linearGradient>
<linearGradient id="paint1_linear_300_775" x1="40.1147" y1="8.56522" x2="40.1146" y2="72.5652" gradientUnits="userSpaceOnUse">
<stop stop-color="#0066FF"></stop>
<stop offset="1" stop-color="#041125"></stop>
</linearGradient>
<linearGradient id="paint2_linear_300_775" x1="41.7062" y1="19.3408" x2="41.789" y2="7.82872" gradientUnits="userSpaceOnUse">
<stop stop-color="#0166FF"></stop>
<stop offset="1" stop-color="#61D19C"></stop>
</linearGradient>
</defs>
</svg>
