<svg width="80" height="81" fill="none" xmlns="http://www.w3.org/2000/svg"><path d="M40 15.692V8.565m5.24 26.905H40m0 0v7.173m0-7.173h-5.157m-14.865 0h-1.242m41.286 0h1.242m-7.13-14.174 2.146-2.065m-30.413 2.065-2.146-2.065m10.821 31.225h11.093M28.67 40.87l4.412 7.771a7.896 7.896 0 0 1 1.03 3.9V56.4a6.01 6.01 0 0 0 6.01 6.01v0a6.01 6.01 0 0 0 6.01-6.01v-3.815a7.86 7.86 0 0 1 1.076-3.969l4.245-7.258c1.164-1.95 1.746-4.116 1.746-6.498 0-7.148-6.111-13.037-13.199-13.037-7.055 0-13.199 5.921-13.199 13.037 0 1.678.623 3.682 1.869 6.01Z" stroke="url('#paint0_linear_300_955')" stroke-width="4" stroke-linecap="round" stroke-linejoin="round"/><path d="M32.25 8.565H25c-8.837 0-16 7.164-16 16v30c0 8.837 7.163 16 16 16h7.58a4 4 0 0 1 2.844 1.187L40 76.378l4.576-4.626a4 4 0 0 1 2.843-1.187H55c8.837 0 16-7.163 16-16v-30c0-8.836-7.163-16-16-16h-7.25" stroke="url('#paint1_linear_300_955')" stroke-width="4" stroke-linecap="round"/><defs><linearGradient id="paint0_linear_300_955" x1="22.458" y1="55.91" x2="51.863" y2="25.498" gradientUnits="userSpaceOnUse"><stop stop-color="#023A90"/><stop offset="1" stop-color="#61D19C"/></linearGradient><linearGradient id="paint1_linear_300_955" x1="40.111" y1="8.565" x2="40.111" y2="76.378" gradientUnits="userSpaceOnUse"><stop stop-color="#06F"/><stop offset="1" stop-color="#041125"/></linearGradient></defs></svg>