<svg width="80" height="81" fill="none" xmlns="http://www.w3.org/2000/svg"><circle cx="40" cy="40.565" r="32" stroke="url('#paint0_linear_300_1087')" stroke-width="4"/><path d="M46.89 47.453 56 56.564m-9.11-9.11c-2.613 2.611-5.774 3.917-9.485 3.917-7.29 0-13.54-6.042-13.403-13.402 0-7.413 6.063-13.267 13.402-13.403 7.342 0 13.403 6.07 13.403 13.403 0 3.78-1.306 6.941-3.918 9.484Zm-9.487-3.485a6 6 0 0 1-6-6" stroke="url('#paint1_linear_300_1087')" stroke-width="4" stroke-linecap="round" stroke-linejoin="round"/><circle cx="61.997" cy="18.567" r="12.002" fill="#61D19C"/><path d="m57.81 18.567 2.085 2.086a1 1 0 0 0 1.414 0l4.878-4.878" stroke="#fff" stroke-width="2" stroke-linecap="round" stroke-linejoin="round"/><defs><linearGradient id="paint0_linear_300_1087" x1="40.115" y1="8.565" x2="40.115" y2="72.565" gradientUnits="userSpaceOnUse"><stop stop-color="#06F"/><stop offset="1" stop-color="#041125"/></linearGradient><linearGradient id="paint1_linear_300_1087" x1="26.801" y1="52.701" x2="43.667" y2="30.613" gradientUnits="userSpaceOnUse"><stop stop-color="#023A90"/><stop offset="1" stop-color="#61D19C"/></linearGradient></defs></svg>