<svg width="80" height="81" fill="none" xmlns="http://www.w3.org/2000/svg"><g clip-path="url('#clip0_300_284')"><circle cx="40" cy="40.134" r="32" transform="rotate(45 40 40.134)" stroke="url('#paint0_linear_300_284')" stroke-width="4"/><path d="m37.171 27.406-3.814-3.815c-1.694-1.694-.817-4.593 1.533-5.063l28.981-5.796c2.1-.42 3.95 1.43 3.53 3.53l-5.796 28.982c-.47 2.35-3.369 3.227-5.063 1.533l-3.815-3.815L40 55.69a2 2 0 0 1-2.829-2.828l16.264-16.264a1 1 0 1 0-1.415-1.414l-8.485 8.485a2 2 0 1 1-2.828-2.828l4.242-4.243a1 1 0 0 0-1.414-1.414L30.807 47.912a2 2 0 0 1-2.828-2.828l20.506-20.507a1 1 0 0 0-1.414-1.414L31.514 38.72a2 2 0 0 1-2.828-2.828l8.485-8.485Z" fill="url('#paint1_linear_300_284')"/><path d="m19.494 45.084 4.95-4.95a2 2 0 0 1 2.828 2.828l-4.95 4.95a2 2 0 0 1-2.828-2.828Z" fill="url('#paint2_linear_300_284')"/><path d="m27.979 53.569 8.485-8.486a2 2 0 1 1 2.828 2.829l-8.485 8.485a2 2 0 0 1-2.828-2.828Z" fill="url('#paint3_linear_300_284')"/><path d="m32.221 57.811.708-.707a2 2 0 1 1 2.828 2.829l-.707.707a2 2 0 1 1-2.829-2.829Z" fill="url('#paint4_linear_300_284')"/></g><defs><linearGradient id="paint0_linear_300_284" x1="40.115" y1="8.134" x2="40.115" y2="72.134" gradientUnits="userSpaceOnUse"><stop stop-color="#06F"/><stop offset="1" stop-color="#041125"/></linearGradient><linearGradient id="paint1_linear_300_284" x1="18.146" y1="36.32" x2="63.553" y2="37.239" gradientUnits="userSpaceOnUse"><stop stop-color="#023A90"/><stop offset="1" stop-color="#61D19C"/></linearGradient><linearGradient id="paint2_linear_300_284" x1="18.146" y1="36.32" x2="63.553" y2="37.239" gradientUnits="userSpaceOnUse"><stop stop-color="#023A90"/><stop offset="1" stop-color="#61D19C"/></linearGradient><linearGradient id="paint3_linear_300_284" x1="18.146" y1="36.32" x2="63.553" y2="37.239" gradientUnits="userSpaceOnUse"><stop stop-color="#023A90"/><stop offset="1" stop-color="#61D19C"/></linearGradient><linearGradient id="paint4_linear_300_284" x1="18.146" y1="36.32" x2="63.553" y2="37.239" gradientUnits="userSpaceOnUse"><stop stop-color="#023A90"/><stop offset="1" stop-color="#61D19C"/></linearGradient><clipPath id="clip0_300_284"><path fill="#fff" transform="translate(0 .565)" d="M0 0h80v80H0z"/></clipPath></defs></svg>