<svg width="80" height="81" fill="none" xmlns="http://www.w3.org/2000/svg"><path d="M32.496 44.079c0-1.043-.094-2.044-.268-3.007H18.387v5.692h7.91c-.348 1.83-1.39 3.38-2.953 4.423v3.7h4.77c2.778-2.565 4.382-6.332 4.382-10.808Z" fill="#4285F4"/><path d="M18.387 58.442c3.968 0 7.295-1.31 9.727-3.554l-4.77-3.701c-1.31.882-2.98 1.416-4.957 1.416-3.821 0-7.068-2.579-8.23-6.053h-4.89v3.795c2.418 4.797 7.375 8.097 13.12 8.097Z" fill="#34A853"/><path d="M10.156 46.537a8.806 8.806 0 0 1-.468-2.792c0-.975.174-1.91.468-2.793v-3.794h-4.89a14.515 14.515 0 0 0-1.577 6.587c0 2.378.575 4.61 1.577 6.587l3.808-2.966 1.082-.829Z" fill="#FBBC05"/><path d="M18.387 34.9c2.164 0 4.088.748 5.625 2.191l4.208-4.209c-2.551-2.378-5.865-3.834-9.833-3.834-5.745 0-10.702 3.3-13.12 8.11l4.89 3.794c1.162-3.474 4.409-6.052 8.23-6.052Z" fill="#EA4335"/><path d="M57.827 63.827c0 2.502 1.946 4.587 4.586 4.587 2.64 0 4.725-2.155 4.725-4.725s-1.946-4.587-4.586-4.587c-2.64 0-4.655 2.155-4.725 4.725ZM67.833 39.299l-7.435 18.066h8.408L76.31 39.3h-8.477ZM50.184 75.431 61.51 48.123h-7.504L49.42 59.588l-4.308-11.465h-7.643l8.13 20.012-2.92 7.296h7.505Z" fill="#6001D2"/><path fill-rule="evenodd" clip-rule="evenodd" d="M48.705 16.295a1.291 1.291 0 0 0-1.136 1.21c-.019.273-.013.291.607 1.885 1.41 3.627 1.75 4.5 1.808 4.623.14.297.335.577.58.828.187.193.31.297.52.436.367.246.55.314 1.98.737 1.394.413 2.156.687 2.812 1.013.85.422 1.443.902 1.818 1.471.27.409.508 1.142.611 1.88.041.287.041.925 0 1.185-.087.566-.261 1.04-.529 1.437-.142.21-.093.175.114-.082.585-.727 1.181-1.97 1.486-3.098a9.356 9.356 0 0 0 .144-4.217 9.281 9.281 0 0 0-4.64-6.343 144.73 144.73 0 0 0-1.863-.976l-.358-.187a1101.59 1101.59 0 0 1-2.221-1.158c-.773-.404-1.1-.567-1.193-.596a1.948 1.948 0 0 0-.408-.063 7.347 7.347 0 0 0-.132.015Z" fill="url('#paint0_radial_300_840')"/><path d="M50.388 29.834a5.774 5.774 0 0 0-.133.082l-.152.094a816.51 816.51 0 0 0-2.531 1.561l-.645.398a332.381 332.381 0 0 0-1.68 1.043c-.026.022-1.233.77-1.839 1.14-.46.28-.992.467-1.537.54a4.756 4.756 0 0 1-.987 0 3.97 3.97 0 0 1-1.858-.752 5.147 5.147 0 0 1-.765-.764 3.958 3.958 0 0 1-.713-1.597 3.028 3.028 0 0 0-.059-.255c-.01-.01.01.194.046.462.039.279.12.682.208 1.027.678 2.67 2.608 4.84 5.222 5.873a8.941 8.941 0 0 0 2.338.577c.31.034 1.189.048 1.513.023 1.486-.112 2.78-.55 4.107-1.388a493.726 493.726 0 0 1 .924-.584c.083-.053.183-.117.222-.14l.176-.11.541-.343.963-.608.33-.209.013-.007.036-.023.017-.011.244-.154.841-.532c1.072-.673 1.392-.91 1.89-1.397.207-.204.52-.55.536-.595.003-.009.059-.095.123-.19.264-.39.44-.868.527-1.432.04-.26.04-.898 0-1.186-.079-.557-.257-1.19-.449-1.592-.315-.66-.986-1.26-1.95-1.743-.265-.133-.54-.256-.57-.254-.015 0-.912.549-1.994 1.218l-2.086 1.291-.25.153-.619.384Z" fill="url('#paint1_radial_300_840')"/><path d="m37.473 26.623.005 4.662.06.27c.189.846.516 1.457 1.084 2.023a3.828 3.828 0 0 0 2.756 1.14c.757 0 1.411-.189 2.086-.601l.991-.61.784-.484v-16.12c0-3.227-.006-5.144-.016-5.295a3.815 3.815 0 0 0-1.124-2.47c-.204-.202-.379-.337-.898-.694a2629.307 2629.307 0 0 1-3.248-2.238c-.502-.346-.54-.37-.692-.424a1.371 1.371 0 0 0-.605-.075c-.58.062-1.043.48-1.164 1.049-.019.088-.022 1.266-.022 7.655v7.551h-.001l.004 4.661Z" fill="url('#paint2_linear_300_840')"/><defs><radialGradient id="paint0_radial_300_840" cx="0" cy="0" r="1" gradientUnits="userSpaceOnUse" gradientTransform="rotate(-130.909 36.179 1.242) scale(17.3597 12.4911)"><stop stop-color="#00CACC"/><stop offset="1" stop-color="#048FCE"/></radialGradient><radialGradient id="paint1_radial_300_840" cx="0" cy="0" r="1" gradientUnits="userSpaceOnUse" gradientTransform="matrix(17.25929 -7.3957 12.32516 28.76312 40.383 35.727)"><stop stop-color="#00BBEC"/><stop offset="1" stop-color="#2756A9"/></radialGradient><linearGradient id="paint2_linear_300_840" x1="41.354" y1="5.699" x2="41.354" y2="34.718" gradientUnits="userSpaceOnUse"><stop stop-color="#00BBEC"/><stop offset="1" stop-color="#2756A9"/></linearGradient></defs></svg>