<svg width="80" height="81" fill="none" xmlns="http://www.w3.org/2000/svg"><path d="M11 22.72v11.008c0 19.664 9.676 29.865 23.662 37.844a10.78 10.78 0 0 0 10.677-.003C59.324 63.586 69 53.396 69 33.727V22.72a10 10 0 0 0-7.178-9.594L44.516 8.034a16 16 0 0 0-9.032 0l-17.307 5.092A10 10 0 0 0 11 22.72Z" stroke="url('#paint0_linear_300_918')" stroke-width="4" stroke-linecap="round" stroke-linejoin="round"/><path d="m32.25 32.292-.449-5.02c-.43-4.816 3.363-8.964 8.199-8.964v0c4.835 0 8.63 4.148 8.199 8.964l-.449 5.02m-15.5 0H31a6 6 0 0 0-6 6v11.49a6 6 0 0 0 6 6h18a6 6 0 0 0 6-6v-11.49a6 6 0 0 0-6-6h-1.25m-15.5 0h15.5M40 47.522V43.65m0 0a2 2 0 0 0 2-1.997 2 2 0 0 0-4 0 2 2 0 0 0 2 1.997Z" stroke="url('#paint1_linear_300_918')" stroke-width="4" stroke-linecap="round" stroke-linejoin="round"/><defs><linearGradient id="paint0_linear_300_918" x1="40.104" y1="6.706" x2="40.104" y2="74.425" gradientUnits="userSpaceOnUse"><stop stop-color="#06F"/><stop offset="1" stop-color="#041125"/></linearGradient><linearGradient id="paint1_linear_300_918" x1="27.626" y1="51.258" x2="48.079" y2="29.816" gradientUnits="userSpaceOnUse"><stop stop-color="#023A90"/><stop offset="1" stop-color="#61D19C"/></linearGradient></defs></svg>