<svg width="80" height="81" viewBox="0 0 80 81" fill="none" xmlns="http://www.w3.org/2000/svg">
<path d="M11 22.7195V33.7275C11 53.3917 20.6756 63.5929 34.662 71.5716C37.9682 73.4576 42.0339 73.4564 45.3394 71.5694C59.3235 63.5864 69 53.3963 69 33.7275V22.7195C69 18.2837 66.0779 14.378 61.8225 13.126L44.516 8.03432C41.5678 7.16694 38.4322 7.16695 35.4841 8.03432L18.1775 13.1261C13.9221 14.378 11 18.2837 11 22.7195Z" stroke="url('#paint0_linear_300_918')" stroke-width="4" stroke-linecap="round" stroke-linejoin="round"></path>
<path d="M32.25 32.2925L31.8012 27.2718C31.3707 22.4556 35.1645 18.3075 39.9999 18.3075V18.3075C44.8353 18.3075 48.6291 22.4555 48.1987 27.2717L47.75 32.2925M32.25 32.2925H31C27.6863 32.2925 25 34.9787 25 38.2925V49.7827C25 53.0964 27.6863 55.7827 31 55.7827H49C52.3137 55.7827 55 53.0964 55 49.7827V38.2925C55 34.9788 52.3137 32.2925 49 32.2925H47.75M32.25 32.2925H47.75M39.9999 47.5227V43.6503M39.9999 43.6503C41.1031 43.6503 41.9999 42.7559 41.9999 41.6527C41.9999 40.5495 41.1031 39.6552 39.9999 39.6552C38.8967 39.6552 38 40.5495 37.9999 41.6527C37.9999 42.7559 38.8967 43.6503 39.9999 43.6503Z" stroke="url('#paint1_linear_300_918')" stroke-width="4" stroke-linecap="round" stroke-linejoin="round"></path>
<defs>
<linearGradient id="paint0_linear_300_918" x1="40.1039" y1="6.70572" x2="40.1038" y2="74.4247" gradientUnits="userSpaceOnUse">
<stop stop-color="#0066FF"></stop>
<stop offset="1" stop-color="#041125"></stop>
</linearGradient>
<linearGradient id="paint1_linear_300_918" x1="27.6256" y1="51.2582" x2="48.0794" y2="29.8163" gradientUnits="userSpaceOnUse">
<stop stop-color="#023A90"></stop>
<stop offset="1" stop-color="#61D19C"></stop>
</linearGradient>
</defs>
</svg>
