<svg width="80" height="81" fill="none" xmlns="http://www.w3.org/2000/svg"><path d="m42.256 44.462 4.718-2.723a3.24 3.24 0 0 0 1.186-4.426v0a3.24 3.24 0 0 0-4.426-1.186l-4.718 2.723 15.465-8.928a3.272 3.272 0 0 0 1.197-4.47v0a3.272 3.272 0 0 0-4.47-1.197L31.06 35.888l2.467-9.053a3.234 3.234 0 0 0-2.283-3.974v0a3.234 3.234 0 0 0-3.959 2.278l-5.14 18.977c-.76 3.52-.24 6.84 1.56 9.957 3.484 6.036 12.054 9.18 18.34 5.55l9.811-5.664a3.272 3.272 0 0 0 1.198-4.47v0a3.272 3.272 0 0 0-4.47-1.197l-3.088 1.782 5.21-3.007a3.24 3.24 0 0 0 1.185-4.426v0a3.24 3.24 0 0 0-4.425-1.186l-5.21 3.008Z" stroke="url('#paint0_linear_300_775')" stroke-width="4" stroke-linecap="round" stroke-linejoin="round"/><path d="M40 8.565c-17.673 0-32 14.327-32 32 0 17.673 14.327 32 32 32 17.673 0 32-14.327 32-32a31.86 31.86 0 0 0-6.567-19.423" stroke="url('#paint1_linear_300_775')" stroke-width="4" stroke-linecap="round"/><path d="m38.4 16.38 6.524 3.325m17.7-11.195L59.3 15.034m-11.094-8.07 2.39 7.357" stroke="url('#paint2_linear_300_775')" stroke-width="4" stroke-linecap="round"/><defs><linearGradient id="paint0_linear_300_775" x1="31.491" y1="60.207" x2="34.973" y2="25.309" gradientUnits="userSpaceOnUse"><stop stop-color="#023A90"/><stop offset="1" stop-color="#61D19C"/></linearGradient><linearGradient id="paint1_linear_300_775" x1="40.115" y1="8.565" x2="40.115" y2="72.565" gradientUnits="userSpaceOnUse"><stop stop-color="#06F"/><stop offset="1" stop-color="#041125"/></linearGradient><linearGradient id="paint2_linear_300_775" x1="41.706" y1="19.341" x2="41.789" y2="7.829" gradientUnits="userSpaceOnUse"><stop stop-color="#0166FF"/><stop offset="1" stop-color="#61D19C"/></linearGradient></defs></svg>