<svg width="112" height="72" viewBox="0 0 112 72" fill="none" xmlns="http://www.w3.org/2000/svg">
<path d="M73.3106 24.545V37.0265H70.8072V31.7156H65.4605V37.0265H62.957V24.545H65.4605V29.6771H70.8072V24.545H73.3106Z" fill="#0F284F"/>
<path d="M84.9839 31.8586C84.9839 32.2163 84.96 32.5382 84.9123 32.8243H77.6702C77.7298 33.5395 77.9801 34.0998 78.4212 34.5052C78.8623 34.9105 79.4047 35.1131 80.0485 35.1131C80.9783 35.1131 81.64 34.7138 82.0334 33.9151H84.7335C84.4474 34.8688 83.899 35.6556 83.0884 36.2755C82.2778 36.8834 81.2823 37.1874 80.1021 37.1874C79.1484 37.1874 78.2901 36.9788 77.5271 36.5616C76.7761 36.1324 76.186 35.5304 75.7568 34.7555C75.3396 33.9806 75.131 33.0865 75.131 32.0732C75.131 31.048 75.3396 30.1479 75.7568 29.3731C76.1741 28.5982 76.7582 28.0021 77.5093 27.5849C78.2603 27.1676 79.1246 26.959 80.1021 26.959C81.0439 26.959 81.8844 27.1617 82.6235 27.567C83.3745 27.9723 83.9527 28.5505 84.358 29.3015C84.7753 30.0406 84.9839 30.893 84.9839 31.8586ZM82.391 31.1434C82.3791 30.4996 82.1466 29.987 81.6936 29.6055C81.2406 29.2121 80.6863 29.0154 80.0306 29.0154C79.4107 29.0154 78.8862 29.2062 78.457 29.5876C78.0397 29.9572 77.7834 30.4758 77.6881 31.1434H82.391Z" fill="#0F284F"/>
<path d="M86.1674 32.0375C86.1674 31.0361 86.3641 30.1479 86.7575 29.3731C87.1629 28.5982 87.7053 28.0021 88.3848 27.5849C89.0762 27.1676 89.8451 26.959 90.6916 26.959C91.4307 26.959 92.0744 27.108 92.6228 27.4061C93.1831 27.7041 93.6301 28.0796 93.9639 28.5326V27.1199H96.4853V37.0265H93.9639V35.5781C93.6421 36.043 93.195 36.4304 92.6228 36.7404C92.0625 37.0384 91.4128 37.1874 90.6737 37.1874C89.8392 37.1874 89.0762 36.9729 88.3848 36.5437C87.7053 36.1145 87.1629 35.5125 86.7575 34.7376C86.3641 33.9508 86.1674 33.0508 86.1674 32.0375ZM93.9639 32.0732C93.9639 31.4652 93.8447 30.9467 93.6063 30.5175C93.3679 30.0764 93.046 29.7426 92.6407 29.5161C92.2354 29.2777 91.8002 29.1585 91.3353 29.1585C90.8704 29.1585 90.4412 29.2717 90.0478 29.4982C89.6544 29.7247 89.3325 30.0585 89.0822 30.4996C88.8438 30.9288 88.7245 31.4414 88.7245 32.0375C88.7245 32.6335 88.8438 33.1581 89.0822 33.6111C89.3325 34.0521 89.6544 34.3919 90.0478 34.6303C90.4531 34.8688 90.8823 34.988 91.3353 34.988C91.8002 34.988 92.2354 34.8747 92.6407 34.6482C93.046 34.4098 93.3679 34.076 93.6063 33.6468C93.8447 33.2057 93.9639 32.6812 93.9639 32.0732Z" fill="#0F284F"/>
<path d="M101.434 28.6578C101.756 28.1332 102.173 27.722 102.686 27.4239C103.21 27.1259 103.806 26.9769 104.474 26.9769V29.6055H103.812C103.025 29.6055 102.429 29.7903 102.024 30.1599C101.631 30.5294 101.434 31.1732 101.434 32.0911V37.0265H98.9304V27.1199H101.434V28.6578Z" fill="#0F284F"/>
<path d="M109.075 29.1764V33.9687C109.075 34.3025 109.152 34.5469 109.307 34.7019C109.474 34.8449 109.748 34.9164 110.13 34.9164H111.292V37.0265H109.718C107.608 37.0265 106.553 36.0013 106.553 33.9508V29.1764H105.373V27.1199H106.553V24.6701H109.075V27.1199H111.292V29.1764H109.075Z" fill="#0F284F"/>
<g opacity="0.6">
<path d="M65.2957 44.1837C65.4655 44.2105 65.6196 44.2797 65.7581 44.3914C65.901 44.5031 66.0127 44.6416 66.0931 44.8069C66.178 44.9722 66.2204 45.1486 66.2204 45.3363C66.2204 45.573 66.1601 45.7875 66.0395 45.9796C65.9189 46.1672 65.7424 46.3169 65.5101 46.4285C65.2823 46.5358 65.012 46.5894 64.6993 46.5894H62.957V41.9187H64.6323C64.9495 41.9187 65.2197 41.9723 65.4431 42.0796C65.6665 42.1823 65.834 42.323 65.9457 42.5017C66.0574 42.6804 66.1132 42.8815 66.1132 43.1048C66.1132 43.3818 66.0373 43.6119 65.8854 43.795C65.738 43.9737 65.5414 44.1033 65.2957 44.1837ZM63.5668 43.9357H64.5921C64.878 43.9357 65.0991 43.8687 65.2555 43.7347C65.4118 43.6007 65.49 43.4153 65.49 43.1785C65.49 42.9418 65.4118 42.7564 65.2555 42.6223C65.0991 42.4883 64.8735 42.4213 64.5787 42.4213H63.5668V43.9357ZM64.6457 46.0868C64.9495 46.0868 65.1862 46.0153 65.356 45.8723C65.5258 45.7294 65.6106 45.5306 65.6106 45.276C65.6106 45.0168 65.5213 44.8136 65.3426 44.6662C65.1639 44.5143 64.9249 44.4383 64.6256 44.4383H63.5668V46.0868H64.6457Z" fill="#0F284F"/>
<path d="M70.9331 46.5894L69.8208 44.6796H69.0837V46.5894H68.4739V41.9187H69.9816C70.3345 41.9187 70.6316 41.979 70.8728 42.0997C71.1185 42.2203 71.3017 42.3833 71.4223 42.5888C71.5429 42.7943 71.6032 43.0289 71.6032 43.2925C71.6032 43.6141 71.5094 43.8978 71.3218 44.1435C71.1386 44.3892 70.8617 44.5522 70.4909 44.6327L71.6636 46.5894H70.9331ZM69.0837 44.1904H69.9816C70.3122 44.1904 70.5601 44.11 70.7254 43.9492C70.8907 43.7839 70.9733 43.565 70.9733 43.2925C70.9733 43.0155 70.8907 42.801 70.7254 42.6492C70.5646 42.4973 70.3166 42.4213 69.9816 42.4213H69.0837V44.1904Z" fill="#0F284F"/>
<path d="M76.0755 46.6363C75.6422 46.6363 75.2468 46.5358 74.8894 46.3347C74.532 46.1292 74.2484 45.8455 74.0384 45.4837C73.8329 45.1174 73.7301 44.7064 73.7301 44.2507C73.7301 43.795 73.8329 43.3863 74.0384 43.0244C74.2484 42.6581 74.532 42.3744 74.8894 42.1734C75.2468 41.9679 75.6422 41.8651 76.0755 41.8651C76.5133 41.8651 76.9109 41.9679 77.2683 42.1734C77.6257 42.3744 77.9071 42.6559 78.1126 43.0177C78.3181 43.3796 78.4209 43.7906 78.4209 44.2507C78.4209 44.7108 78.3181 45.1218 78.1126 45.4837C77.9071 45.8455 77.6257 46.1292 77.2683 46.3347C76.9109 46.5358 76.5133 46.6363 76.0755 46.6363ZM76.0755 46.1069C76.4016 46.1069 76.6942 46.0309 76.9533 45.879C77.2169 45.7272 77.4224 45.5105 77.5698 45.229C77.7217 44.9476 77.7977 44.6215 77.7977 44.2507C77.7977 43.8754 77.7217 43.5493 77.5698 43.2723C77.4224 42.9909 77.2191 42.7742 76.96 42.6223C76.7009 42.4705 76.4061 42.3945 76.0755 42.3945C75.7449 42.3945 75.4501 42.4705 75.191 42.6223C74.9319 42.7742 74.7264 42.9909 74.5745 43.2723C74.4271 43.5493 74.3533 43.8754 74.3533 44.2507C74.3533 44.6215 74.4271 44.9476 74.5745 45.229C74.7264 45.5105 74.9319 45.7272 75.191 45.879C75.4545 46.0309 75.7494 46.1069 76.0755 46.1069Z" fill="#0F284F"/>
<path d="M86.5032 41.9187L85.1496 46.5894H84.4661L83.3805 42.8301L82.2547 46.5894L81.5779 46.5961L80.2712 41.9187H80.9212L81.9398 45.879L83.0656 41.9187H83.7491L84.8212 45.8656L85.8465 41.9187H86.5032Z" fill="#0F284F"/>
<path d="M90.0587 46.6363C89.7504 46.6363 89.4735 46.5827 89.2277 46.4754C88.9865 46.3638 88.7966 46.2119 88.6582 46.0198C88.5197 45.8232 88.4482 45.5976 88.4437 45.343H89.0937C89.1161 45.5619 89.2054 45.7473 89.3618 45.8992C89.5226 46.0466 89.7549 46.1203 90.0587 46.1203C90.3491 46.1203 90.5769 46.0488 90.7422 45.9059C90.9119 45.7584 90.9968 45.5708 90.9968 45.343C90.9968 45.1643 90.9477 45.0191 90.8494 44.9074C90.7511 44.7957 90.6283 44.7108 90.4808 44.6528C90.3334 44.5947 90.1346 44.5321 89.8844 44.4651C89.5762 44.3847 89.3283 44.3043 89.1406 44.2239C88.9575 44.1435 88.7989 44.0184 88.6649 43.8486C88.5353 43.6744 88.4705 43.4421 88.4705 43.1517C88.4705 42.8971 88.5353 42.6715 88.6649 42.4749C88.7944 42.2784 88.9753 42.1265 89.2076 42.0193C89.4444 41.912 89.7147 41.8584 90.0185 41.8584C90.4563 41.8584 90.8137 41.9679 91.0906 42.1868C91.3721 42.4057 91.5307 42.6961 91.5664 43.0579H90.8963C90.874 42.8792 90.7802 42.7229 90.6149 42.5888C90.4496 42.4504 90.2307 42.3811 89.9582 42.3811C89.7035 42.3811 89.4958 42.4481 89.335 42.5821C89.1741 42.7117 89.0937 42.8949 89.0937 43.1316C89.0937 43.3014 89.1406 43.4399 89.2344 43.5471C89.3327 43.6543 89.4511 43.737 89.5896 43.795C89.7326 43.8486 89.9314 43.9112 90.186 43.9827C90.4942 44.0675 90.7422 44.1524 90.9298 44.2373C91.1174 44.3177 91.2783 44.445 91.4123 44.6193C91.5463 44.789 91.6133 45.0213 91.6133 45.3162C91.6133 45.544 91.553 45.7584 91.4324 45.9595C91.3118 46.1605 91.1331 46.3236 90.8963 46.4486C90.6595 46.5737 90.3803 46.6363 90.0587 46.6363Z" fill="#0F284F"/>
<path d="M94.5277 42.4146V43.976H96.2297V44.4785H94.5277V46.0868H96.4308V46.5894H93.9179V41.912H96.4308V42.4146H94.5277Z" fill="#0F284F"/>
<path d="M101.22 46.5894L100.108 44.6796H99.3705V46.5894H98.7607V41.9187H100.268C100.621 41.9187 100.918 41.979 101.16 42.0997C101.405 42.2203 101.589 42.3833 101.709 42.5888C101.83 42.7943 101.89 43.0289 101.89 43.2925C101.89 43.6141 101.796 43.8978 101.609 44.1435C101.425 44.3892 101.148 44.5522 100.778 44.6327L101.95 46.5894H101.22ZM99.3705 44.1904H100.268C100.599 44.1904 100.847 44.11 101.012 43.9492C101.178 43.7839 101.26 43.565 101.26 43.2925C101.26 43.0155 101.178 42.801 101.012 42.6492C100.851 42.4973 100.603 42.4213 100.268 42.4213H99.3705V44.1904Z" fill="#0F284F"/>
</g>
<g filter="url(#filter0_d_141_1630)">
<path d="M47.4717 26.4783C46.5637 21.037 38.3799 13.3859 36.1342 13.3859C33.8254 13.386 24.6394 20.645 24.6394 28.3843L24.6394 39.5083C27.665 33.9225 38.1175 23.7289 45.7517 32.5857C45.7517 32.5857 47.6089 29.5906 47.4717 26.4783Z" fill="url(#paint0_linear_141_1630)"/>
</g>
<g filter="url(#filter1_d_141_1630)">
<path d="M26.5619 34.713C23.3564 39.2027 23.7685 45.4803 27.7984 49.5102C30.0933 51.8051 33.1172 52.9268 36.1248 52.8752C39.0001 52.8259 41.8604 51.7042 44.0545 49.5102L51.8832 41.5055C51.2053 41.6166 31.2322 43.2716 32.0967 31.6107C32.0967 31.6107 28.6656 32.4153 26.5619 34.713Z" fill="url(#paint1_linear_141_1630)"/>
</g>
<g filter="url(#filter2_d_141_1630)">
<path d="M34.717 24.0414C30.2274 20.8359 19.0305 21.2126 17.4425 22.8005C15.81 24.4332 14.4474 36.0615 19.9199 41.534L27.7858 49.3999C25.9754 43.3107 26.1585 28.7118 37.8194 29.5762C37.8194 29.5762 37.0148 26.1452 34.717 24.0414Z" fill="url(#paint2_linear_141_1630)"/>
</g>
<g filter="url(#filter3_d_141_1630)">
<path d="M51.8829 41.5059C55.0884 37.0162 56.6619 24.9741 54.4882 22.8004C52.9795 21.2916 40.2437 20.7887 35.7548 25.2777L29.8484 32.2463C35.9376 30.436 32.3034 46.5916 51.8829 41.5059Z" fill="url(#paint3_linear_141_1630)"/>
</g>
<g filter="url(#filter4_diiii_141_1630)">
<path fill-rule="evenodd" clip-rule="evenodd" d="M44.5154 38.3809C46.9701 35.9262 46.9701 31.9463 44.5154 29.4916C42.5617 27.5379 39.642 27.1391 37.294 28.2952C36.3407 28.7645 35.1489 28.7646 34.1956 28.2953C31.8477 27.1397 28.9283 27.5385 26.9748 29.492C24.5201 31.9467 24.5201 35.9266 26.9748 38.3813L31.2761 42.6826C32.5245 43.931 34.1674 44.5445 35.8035 44.5231C37.4007 44.5145 38.9954 43.9009 40.2141 42.6822L44.5154 38.3809Z" fill="url(#paint4_radial_141_1630)"/>
</g>
<defs>
<filter id="filter0_d_141_1630" x="8.81485" y="0.726092" width="54.4885" height="57.7719" filterUnits="userSpaceOnUse" color-interpolation-filters="sRGB">
<feFlood flood-opacity="0" result="BackgroundImageFix"/>
<feColorMatrix in="SourceAlpha" type="matrix" values="0 0 0 0 0 0 0 0 0 0 0 0 0 0 0 0 0 0 127 0" result="hardAlpha"/>
<feOffset dy="3.16496"/>
<feGaussianBlur stdDeviation="7.9124"/>
<feComposite in2="hardAlpha" operator="out"/>
<feColorMatrix type="matrix" values="0 0 0 0 0 0 0 0 0 0 0 0 0 0 0 0 0 0 0.1 0"/>
<feBlend mode="normal" in2="BackgroundImageFix" result="effect1_dropShadow_141_1630"/>
<feBlend mode="normal" in="SourceGraphic" in2="effect1_dropShadow_141_1630" result="shape"/>
</filter>
<filter id="filter1_d_141_1630" x="8.60684" y="18.9508" width="59.1008" height="52.9158" filterUnits="userSpaceOnUse" color-interpolation-filters="sRGB">
<feFlood flood-opacity="0" result="BackgroundImageFix"/>
<feColorMatrix in="SourceAlpha" type="matrix" values="0 0 0 0 0 0 0 0 0 0 0 0 0 0 0 0 0 0 127 0" result="hardAlpha"/>
<feOffset dy="3.16496"/>
<feGaussianBlur stdDeviation="7.9124"/>
<feComposite in2="hardAlpha" operator="out"/>
<feColorMatrix type="matrix" values="0 0 0 0 0 0 0 0 0 0 0 0 0 0 0 0 0 0 0.1 0"/>
<feBlend mode="normal" in2="BackgroundImageFix" result="effect1_dropShadow_141_1630"/>
<feBlend mode="normal" in="SourceGraphic" in2="effect1_dropShadow_141_1630" result="shape"/>
</filter>
<filter id="filter2_d_141_1630" x="0.175204" y="8.94875" width="53.4689" height="59.4409" filterUnits="userSpaceOnUse" color-interpolation-filters="sRGB">
<feFlood flood-opacity="0" result="BackgroundImageFix"/>
<feColorMatrix in="SourceAlpha" type="matrix" values="0 0 0 0 0 0 0 0 0 0 0 0 0 0 0 0 0 0 127 0" result="hardAlpha"/>
<feOffset dy="3.16496"/>
<feGaussianBlur stdDeviation="7.9124"/>
<feComposite in2="hardAlpha" operator="out"/>
<feColorMatrix type="matrix" values="0 0 0 0 0 0 0 0 0 0 0 0 0 0 0 0 0 0 0.1 0"/>
<feBlend mode="normal" in2="BackgroundImageFix" result="effect1_dropShadow_141_1630"/>
<feBlend mode="normal" in="SourceGraphic" in2="effect1_dropShadow_141_1630" result="shape"/>
</filter>
<filter id="filter3_d_141_1630" x="14.0238" y="9.0667" width="57.2941" height="52.4239" filterUnits="userSpaceOnUse" color-interpolation-filters="sRGB">
<feFlood flood-opacity="0" result="BackgroundImageFix"/>
<feColorMatrix in="SourceAlpha" type="matrix" values="0 0 0 0 0 0 0 0 0 0 0 0 0 0 0 0 0 0 127 0" result="hardAlpha"/>
<feOffset dy="3.16496"/>
<feGaussianBlur stdDeviation="7.9124"/>
<feComposite in2="hardAlpha" operator="out"/>
<feColorMatrix type="matrix" values="0 0 0 0 0 0 0 0 0 0 0 0 0 0 0 0 0 0 0.1 0"/>
<feBlend mode="normal" in2="BackgroundImageFix" result="effect1_dropShadow_141_1630"/>
<feBlend mode="normal" in="SourceGraphic" in2="effect1_dropShadow_141_1630" result="shape"/>
</filter>
<filter id="filter4_diiii_141_1630" x="6.40175" y="16.4113" width="58.6867" height="54.3372" filterUnits="userSpaceOnUse" color-interpolation-filters="sRGB">
<feFlood flood-opacity="0" result="BackgroundImageFix"/>
<feColorMatrix in="SourceAlpha" type="matrix" values="0 0 0 0 0 0 0 0 0 0 0 0 0 0 0 0 0 0 127 0" result="hardAlpha"/>
<feOffset dy="7.49282"/>
<feGaussianBlur stdDeviation="9.36602"/>
<feComposite in2="hardAlpha" operator="out"/>
<feColorMatrix type="matrix" values="0 0 0 0 0 0 0 0 0 0 0 0 0 0 0 0 0 0 0.5 0"/>
<feBlend mode="normal" in2="BackgroundImageFix" result="effect1_dropShadow_141_1630"/>
<feBlend mode="normal" in="SourceGraphic" in2="effect1_dropShadow_141_1630" result="shape"/>
<feColorMatrix in="SourceAlpha" type="matrix" values="0 0 0 0 0 0 0 0 0 0 0 0 0 0 0 0 0 0 127 0" result="hardAlpha"/>
<feOffset dx="-0.936602" dy="2.80981"/>
<feGaussianBlur stdDeviation="1.8732"/>
<feComposite in2="hardAlpha" operator="arithmetic" k2="-1" k3="1"/>
<feColorMatrix type="matrix" values="0 0 0 0 1 0 0 0 0 1 0 0 0 0 1 0 0 0 0.25 0"/>
<feBlend mode="normal" in2="shape" result="effect2_innerShadow_141_1630"/>
<feColorMatrix in="SourceAlpha" type="matrix" values="0 0 0 0 0 0 0 0 0 0 0 0 0 0 0 0 0 0 127 0" result="hardAlpha"/>
<feOffset dy="0.936602"/>
<feGaussianBlur stdDeviation="0.936602"/>
<feComposite in2="hardAlpha" operator="arithmetic" k2="-1" k3="1"/>
<feColorMatrix type="matrix" values="0 0 0 0 1 0 0 0 0 1 0 0 0 0 1 0 0 0 0.35 0"/>
<feBlend mode="normal" in2="effect2_innerShadow_141_1630" result="effect3_innerShadow_141_1630"/>
<feColorMatrix in="SourceAlpha" type="matrix" values="0 0 0 0 0 0 0 0 0 0 0 0 0 0 0 0 0 0 127 0" result="hardAlpha"/>
<feOffset dx="0.936602" dy="-1.8732"/>
<feGaussianBlur stdDeviation="3.27811"/>
<feComposite in2="hardAlpha" operator="arithmetic" k2="-1" k3="1"/>
<feColorMatrix type="matrix" values="0 0 0 0 0 0 0 0 0 0 0 0 0 0 0 0 0 0 0.28 0"/>
<feBlend mode="normal" in2="effect3_innerShadow_141_1630" result="effect4_innerShadow_141_1630"/>
<feColorMatrix in="SourceAlpha" type="matrix" values="0 0 0 0 0 0 0 0 0 0 0 0 0 0 0 0 0 0 127 0" result="hardAlpha"/>
<feOffset dx="0.936602" dy="-0.936602"/>
<feGaussianBlur stdDeviation="0.936602"/>
<feComposite in2="hardAlpha" operator="arithmetic" k2="-1" k3="1"/>
<feColorMatrix type="matrix" values="0 0 0 0 0 0 0 0 0 0 0 0 0 0 0 0 0 0 0.3 0"/>
<feBlend mode="normal" in2="effect4_innerShadow_141_1630" result="effect5_innerShadow_141_1630"/>
</filter>
<linearGradient id="paint0_linear_141_1630" x1="26.0741" y1="21.4794" x2="59.6971" y2="27.3642" gradientUnits="userSpaceOnUse">
<stop stop-color="#0066FF"/>
<stop offset="1" stop-color="#041125"/>
</linearGradient>
<linearGradient id="paint1_linear_141_1630" x1="43.8602" y1="48.6369" x2="15.0035" y2="28.4903" gradientUnits="userSpaceOnUse">
<stop stop-color="#0066FF"/>
<stop offset="1" stop-color="#041125"/>
</linearGradient>
<linearGradient id="paint2_linear_141_1630" x1="16.0519" y1="35.6371" x2="43.9882" y2="16.0232" gradientUnits="userSpaceOnUse">
<stop stop-color="#0066FF"/>
<stop offset="1" stop-color="#041125"/>
</linearGradient>
<linearGradient id="paint3_linear_141_1630" x1="53.9" y1="26.0022" x2="40.1024" y2="55.4479" gradientUnits="userSpaceOnUse">
<stop stop-color="#0066FF"/>
<stop offset="1" stop-color="#041125"/>
</linearGradient>
<radialGradient id="paint4_radial_141_1630" cx="0" cy="0" r="1" gradientUnits="userSpaceOnUse" gradientTransform="translate(40.2186 33.4187) rotate(133.52) scale(25.8949 33.1271)">
<stop stop-color="#74FABA"/>
<stop offset="0.864894" stop-color="#000104"/>
</radialGradient>
</defs>
</svg>
