<svg width="80" height="81" viewBox="0 0 80 81" fill="none" xmlns="http://www.w3.org/2000/svg">
<circle cx="40" cy="40.5652" r="32" stroke="url(#paint0_linear_300_1087)" stroke-width="4"/>
<path d="M46.8891 47.4533L56 56.5642M46.8891 47.4533C44.2774 50.065 41.1159 51.3708 37.4046 51.3708C30.1154 51.3708 23.8659 45.3293 24.0022 37.9686C24.0022 30.5556 30.0649 24.7023 37.4045 24.5664C44.7463 24.5664 50.8067 30.6369 50.8067 37.9686C50.8067 41.7487 49.5008 44.9103 46.8891 47.4533ZM37.4034 43.9686C34.0897 43.9686 31.4034 41.2823 31.4034 37.9686" stroke="url(#paint1_linear_300_1087)" stroke-width="4" stroke-linecap="round" stroke-linejoin="round"/>
<circle cx="61.9973" cy="18.5674" r="12.0022" fill="#61D19C"/>
<path d="M57.8096 18.5673L59.8949 20.6527C60.2855 21.0432 60.9186 21.0432 61.3091 20.6526L66.1869 15.7749" stroke="white" stroke-width="2" stroke-linecap="round" stroke-linejoin="round"/>
<defs>
<linearGradient id="paint0_linear_300_1087" x1="40.1147" y1="8.56522" x2="40.1146" y2="72.5652" gradientUnits="userSpaceOnUse">
<stop stop-color="#0066FF"/>
<stop offset="1" stop-color="#041125"/>
</linearGradient>
<linearGradient id="paint1_linear_300_1087" x1="26.8007" y1="52.701" x2="43.667" y2="30.6126" gradientUnits="userSpaceOnUse">
<stop stop-color="#023A90"/>
<stop offset="1" stop-color="#61D19C"/>
</linearGradient>
</defs>
</svg>
